<svg width="107" height="91" viewBox="0 0 107 91" fill="none" xmlns="http://www.w3.org/2000/svg">
<path d="M3.91965 44.2791C3.87892 44.2843 3.83754 44.2948 3.79681 44.2948C2.54675 44.2955 1.29735 44.2955 0.0472959 44.2948C0.0315306 44.2948 0.0157653 44.2928 0 44.2922C0 42.9909 0 41.6902 0 40.3889C0.60565 40.3889 1.2113 40.3896 1.81629 40.3889C1.85702 40.3889 1.8984 40.3811 1.93913 40.3765L1.93716 40.3745C1.9457 40.4355 1.96147 40.4965 1.96212 40.5569C1.96409 41.0862 1.96344 41.6161 1.96344 42.1454C1.96344 42.2025 1.96344 42.2596 1.96344 42.3278C2.13226 42.3592 2.29385 42.3383 2.45347 42.3422C2.61113 42.3461 2.76878 42.3429 2.92578 42.3429C3.08868 42.3429 3.25159 42.3429 3.41384 42.3429C3.57084 42.3429 3.72718 42.3429 3.89994 42.3429C3.90257 42.4098 3.90717 42.4648 3.90717 42.5206C3.90782 43.0499 3.90717 43.5799 3.90782 44.1092C3.90782 44.1669 3.91308 44.224 3.91505 44.2817C3.91571 44.2843 3.91965 44.2791 3.91965 44.2791Z" fill="#FAB042"/>
<path d="M13.6021 65.7823C13.6086 65.8177 13.6211 65.8531 13.6211 65.8885C13.6224 66.471 13.6218 67.0527 13.6218 67.6352C13.6218 67.6653 13.6165 67.6962 13.6132 67.7408C12.9747 67.7408 12.3415 67.7408 11.6859 67.7408C11.6846 69.0473 11.6859 70.3394 11.6846 71.6492C11.0317 71.6492 10.3945 71.6492 9.7435 71.6492C9.7435 72.3045 9.7435 72.9427 9.7435 73.6025C9.09252 73.6064 8.45534 73.6018 7.80305 73.6051C7.80305 74.2551 7.80305 74.8933 7.80305 75.5269C7.67824 75.5617 6.09974 75.5715 5.86523 75.5413C5.86523 74.2512 5.86523 72.9591 5.86523 71.6538C6.50439 71.6538 7.13763 71.6538 7.79254 71.6538C7.79911 71.2137 7.79517 70.7861 7.79583 70.3591C7.79648 69.9236 7.79583 69.4881 7.79583 69.0532C7.79583 68.6243 7.79583 68.1953 7.79583 67.7473C8.44812 67.7473 9.0853 67.7473 9.73627 67.7473C9.73627 65.7901 9.73627 63.8513 9.73627 61.9053C9.78357 61.898 9.81772 61.8882 9.85254 61.8882C10.4306 61.8876 11.008 61.8869 11.5861 61.8882C11.6274 61.8882 11.6688 61.8994 11.7096 61.9053L11.7063 61.9026C11.6991 61.9531 11.6859 62.0043 11.6859 62.0548C11.6846 63.2453 11.6846 64.4357 11.6853 65.6262C11.6853 65.6767 11.6905 65.7278 11.6938 65.7862C11.7345 65.7895 11.7647 65.7934 11.7956 65.7934C12.3783 65.7941 12.9616 65.7934 13.5442 65.7934C13.5653 65.7934 13.5856 65.7888 13.6073 65.7868C13.6067 65.7862 13.6021 65.7823 13.6021 65.7823Z" fill="#FAB042"/>
<path d="M13.6075 24.7886C13.5523 24.78 13.4971 24.765 13.4413 24.765C12.9171 24.763 12.3935 24.7637 11.8693 24.7637C11.8129 24.7637 11.757 24.7637 11.6874 24.7637C11.6874 24.1064 11.6874 23.4696 11.6874 22.815C11.6197 22.8111 11.5646 22.8058 11.5087 22.8052C10.974 22.8045 10.44 22.8058 9.90525 22.8032C9.84482 22.8032 9.78439 22.7835 9.72461 22.7737L9.72724 22.7756C9.73183 22.7133 9.74037 22.6517 9.74037 22.5894C9.74103 21.4251 9.74103 20.2609 9.74103 19.0974C9.74103 19.0364 9.74103 18.9747 9.74103 18.8993C10.394 18.8993 11.0272 18.8993 11.6821 18.8993C11.69 18.4579 11.6848 18.0302 11.6861 17.6026C11.6867 17.1671 11.6861 16.7322 11.6861 16.2967C11.6861 15.8677 11.6861 15.4388 11.6861 15C12.3338 15 12.9663 15 13.6167 15C13.6193 15.0603 13.6232 15.1213 13.6232 15.1817C13.6239 16.3459 13.6232 17.5101 13.6232 18.6737C13.6232 20.64 13.6232 22.6064 13.6226 24.5728C13.6226 24.6456 13.6114 24.7184 13.6055 24.7905C13.6048 24.7919 13.6075 24.7886 13.6075 24.7886Z" fill="#FAB042"/>
<path d="M13.6035 24.7924C13.6488 24.7833 13.6942 24.7662 13.7395 24.7662C14.307 24.7642 14.8739 24.7649 15.4415 24.7655C15.477 24.7655 15.5131 24.7721 15.567 24.778C15.567 27.376 15.567 29.9694 15.567 32.5786C16.2192 32.5786 16.8518 32.5786 17.4811 32.5786C17.514 32.7111 17.5232 34.2852 17.4969 34.5056C17.3885 34.5384 13.9182 34.5522 13.6278 34.5187C13.6259 34.461 13.6219 34.4006 13.6219 34.3396C13.6213 33.4109 13.6219 32.4828 13.6219 31.5541C13.6219 29.3614 13.6219 27.1681 13.6213 24.9754C13.6213 24.9138 13.6121 24.8515 13.6068 24.7898C13.6061 24.7892 13.6035 24.7924 13.6035 24.7924Z" fill="#FAB042"/>
<path d="M21.4016 36.4876C23.2973 36.4869 25.1931 36.4863 27.0889 36.4863C27.1296 36.4863 27.1697 36.4922 27.2262 36.4961C27.2262 36.5604 27.2262 36.6168 27.2262 36.6732C27.2262 37.2032 27.2255 37.7325 27.2268 38.2624C27.2268 38.3195 27.2341 38.3766 27.238 38.4343L27.2426 38.429C27.19 38.4317 27.1382 38.4376 27.0856 38.4376C25.2489 38.4382 23.4123 38.4382 21.575 38.4382C21.5237 38.4382 21.4718 38.4382 21.4121 38.4382C21.4062 38.3975 21.3989 38.368 21.3989 38.3385C21.3983 37.741 21.3983 37.1435 21.3989 36.546C21.3989 36.525 21.4042 36.5046 21.4068 36.4836L21.4016 36.4876Z" fill="#FAB042"/>
<path d="M31.0996 40.4023C31.141 40.3991 31.183 40.3925 31.2244 40.3925C32.437 40.3918 33.6496 40.3918 34.8623 40.3918C34.8984 40.3918 34.9345 40.3918 34.9674 40.3918C35.0015 40.5125 35.0127 42.0919 34.9818 42.3399C34.3512 42.3399 33.7186 42.3399 33.0657 42.3399C33.0525 42.513 33.0604 42.6737 33.0591 42.8331C33.0578 42.9957 33.0584 43.1584 33.0584 43.3204C33.0584 43.4778 33.0584 43.6352 33.0584 43.792C33.0584 43.9534 33.0584 44.1147 33.0584 44.2846C33.0151 44.2898 32.9855 44.2957 32.956 44.2957C32.3733 44.2964 31.7907 44.2964 31.208 44.2957C31.1719 44.2957 31.1357 44.2866 31.1003 44.282L31.1049 44.2872C31.1075 44.2406 31.1127 44.1934 31.1127 44.1468C31.1134 42.9433 31.1134 41.7397 31.1127 40.5368C31.1127 40.4902 31.1068 40.443 31.1042 40.3964C31.1042 40.3971 31.0996 40.4023 31.0996 40.4023Z" fill="#FAB042"/>
<path d="M9.75563 46.2266C9.70505 46.2345 9.65447 46.2496 9.60324 46.2496C7.75475 46.2509 5.90562 46.2509 4.05714 46.2503C4.01575 46.2503 3.97437 46.2463 3.92444 46.2437C3.91919 46.205 3.91065 46.1702 3.91065 46.1355C3.90999 45.553 3.90999 44.9713 3.91065 44.3888C3.91065 44.3528 3.91722 44.316 3.92116 44.2793C3.92116 44.2793 3.91787 44.2839 3.91787 44.2832C3.98028 44.2872 4.04268 44.295 4.10509 44.295C5.91219 44.2957 7.71863 44.2957 9.52572 44.2957C9.58813 44.2957 9.65119 44.2957 9.73264 44.2957C9.73593 44.358 9.74052 44.4131 9.74052 44.4682C9.74118 44.9982 9.74053 45.5275 9.74118 46.0574C9.74118 46.1145 9.74906 46.1716 9.75235 46.2293C9.75235 46.2299 9.75563 46.2266 9.75563 46.2266Z" fill="#FAB042"/>
<path d="M15.5609 52.0852C15.5635 51.9442 15.5681 51.8032 15.5688 51.6615C15.5701 51.2266 15.5695 50.7918 15.5695 50.3576C15.5695 50.3005 15.5695 50.2428 15.5695 50.1641C15.4 50.1621 15.2397 50.1602 15.0794 50.1595C14.9218 50.1588 14.7648 50.1595 14.6071 50.1595C14.4442 50.1595 14.282 50.1595 14.119 50.1595C13.9621 50.1595 13.8057 50.1595 13.6264 50.1595C13.6172 49.4951 13.627 48.8431 13.6211 48.1912L13.6172 48.1951C13.6802 48.1977 13.7427 48.2023 13.8057 48.2023C14.9717 48.203 16.1377 48.203 17.3043 48.203C17.366 48.203 17.4278 48.203 17.4994 48.203C17.4994 49.5095 17.4994 50.7977 17.4994 52.0944C17.4639 52.0996 17.4291 52.1095 17.3943 52.1101C16.8267 52.1114 16.2598 52.1114 15.6923 52.1095C15.6476 52.1095 15.603 52.0911 15.5583 52.0813L15.5609 52.0852Z" fill="#FAB042"/>
<path d="M7.78606 26.7301C7.78935 26.7872 7.79591 26.8449 7.79591 26.9019C7.79657 28.7273 7.79657 30.552 7.79657 32.3773C7.79657 32.439 7.79657 32.5 7.79657 32.5794C7.72169 32.5794 7.66519 32.5794 7.6087 32.5794C7.0891 32.5794 6.56885 32.5787 6.04925 32.58C5.99276 32.58 5.93627 32.5912 5.87977 32.5971L5.88109 32.5984C5.87255 32.5426 5.85678 32.4869 5.85678 32.4305C5.85547 30.5808 5.85547 28.7319 5.85547 26.8823C5.85547 26.8357 5.85547 26.7891 5.85547 26.734C5.89882 26.7268 5.93298 26.7163 5.96714 26.7163C6.53863 26.715 7.11078 26.715 7.68227 26.7163C7.71774 26.7163 7.75387 26.7268 7.78934 26.7327C7.78869 26.7327 7.78606 26.7301 7.78606 26.7301Z" fill="#FAB042"/>
<path d="M11.7096 61.9031C11.7017 61.8421 11.6866 61.7805 11.6866 61.7195C11.6853 59.879 11.6853 58.0379 11.686 56.1975C11.686 56.1463 11.6906 56.0945 11.6932 56.0342C11.7405 56.0296 11.7806 56.0224 11.8213 56.0224C12.3777 56.0217 12.9347 56.0211 13.4911 56.023C13.5364 56.023 13.5818 56.0381 13.6264 56.046L13.6225 56.0414C13.6225 57.9835 13.6225 59.9263 13.6225 61.8854C13.5483 61.8854 13.4918 61.8854 13.4353 61.8854C12.9157 61.8854 12.3961 61.8848 11.8771 61.8861C11.8206 61.8861 11.7635 61.8953 11.707 61.9005L11.7096 61.9031Z" fill="#FAB042"/>
<path d="M9.72233 22.7742C9.72759 22.826 9.73744 22.8778 9.73744 22.9296C9.7381 24.1411 9.7381 25.3531 9.7381 26.5646C9.7381 26.6059 9.73482 26.6479 9.73219 26.7069C9.67372 26.7102 9.61789 26.7154 9.56205 26.7154C9.03129 26.7161 8.50118 26.7154 7.97042 26.7168C7.90801 26.7168 7.84561 26.7253 7.7832 26.7299L7.78583 26.7332C7.78846 26.6649 7.79306 26.5974 7.79306 26.5292C7.79371 25.3597 7.79306 24.1902 7.79306 23.0208C7.79306 22.9585 7.79306 22.8962 7.79306 22.8155C7.8594 22.8116 7.91458 22.8063 7.96976 22.8063C8.49987 22.8057 9.03063 22.807 9.56074 22.805C9.61526 22.805 9.66978 22.7879 9.72365 22.7781C9.72496 22.7761 9.72233 22.7742 9.72233 22.7742Z" fill="#FAB042"/>
<path d="M15.5569 52.0828C15.5609 52.1293 15.5675 52.1766 15.5675 52.2231C15.5681 53.4437 15.5681 54.6644 15.5675 55.8843C15.5675 55.9204 15.5642 55.9571 15.5615 56.0122C15.505 56.0155 15.4499 56.0221 15.3947 56.0221C14.86 56.0227 14.3246 56.0221 13.7899 56.0234C13.7334 56.0234 13.6769 56.0352 13.6211 56.0417C13.6211 56.0417 13.625 56.0463 13.625 56.047C13.6244 55.256 13.6231 54.4643 13.6224 53.6727C13.6218 53.2168 13.6224 52.7603 13.6224 52.3045C13.6224 52.248 13.6224 52.1916 13.6224 52.1208C13.6927 52.1175 13.7485 52.1129 13.805 52.1129C14.3351 52.1123 14.8652 52.1136 15.3953 52.1116C15.4505 52.1116 15.5064 52.0965 15.5609 52.088C15.5596 52.0867 15.5569 52.0828 15.5569 52.0828Z" fill="#FAB042"/>
<path d="M3.92001 36.4959C3.91673 36.4493 3.91081 36.4021 3.91081 36.3555C3.91016 35.1506 3.91016 33.9458 3.91016 32.7409C3.91016 32.695 3.91016 32.6484 3.91016 32.594C3.9568 32.5881 3.99161 32.5808 4.02643 32.5808C4.59792 32.5802 5.17007 32.5795 5.74156 32.5808C5.7882 32.5808 5.83418 32.5926 5.88082 32.5992L5.8795 32.5979C5.87162 32.6582 5.85586 32.7186 5.85586 32.7789C5.85454 33.949 5.85454 35.1185 5.85454 36.2886C5.85454 36.3503 5.85454 36.4113 5.85454 36.4867C5.77703 36.4867 5.72054 36.4867 5.66339 36.4867C5.13788 36.4867 4.61303 36.4867 4.08752 36.4867C4.02971 36.4867 3.97256 36.4906 3.9141 36.4919C3.91475 36.4913 3.92001 36.4959 3.92001 36.4959Z" fill="#FAB042"/>
<path d="M1.93861 40.379C1.94649 40.3186 1.9616 40.2583 1.9616 40.198C1.96291 39.0305 1.96291 37.863 1.96291 36.6961C1.96291 36.6345 1.96291 36.5722 1.96291 36.502C1.99839 36.4954 2.02269 36.4876 2.04634 36.4876C2.64936 36.4869 3.25173 36.4869 3.85475 36.4876C3.87511 36.4876 3.89613 36.4935 3.91715 36.4967C3.91715 36.4967 3.9119 36.4921 3.91255 36.4928C3.91124 36.5505 3.90796 36.6082 3.90796 36.6653C3.90796 37.8387 3.90796 39.0114 3.90796 40.1848C3.90796 40.2471 3.90796 40.3088 3.90796 40.3777C3.87314 40.3836 3.84884 40.3908 3.82387 40.3914C3.23136 40.3921 2.63885 40.3921 2.04634 40.3914C2.01021 40.3914 1.97408 40.3823 1.93795 40.3777C1.93664 40.3777 1.93861 40.379 1.93861 40.379Z" fill="#FAB042"/>
<path d="M29.1433 48.1862C29.1506 48.1252 29.1637 48.0635 29.1637 48.0025C29.165 46.8383 29.1644 45.6741 29.1644 44.5099C29.1644 44.4476 29.1644 44.3853 29.1644 44.3059C29.2307 44.3026 29.2859 44.298 29.3411 44.298C29.8712 44.2974 30.4019 44.298 30.932 44.2974C30.9892 44.2974 31.047 44.2921 31.1041 44.2889C31.1041 44.2889 31.0995 44.2836 31.0989 44.283C31.1028 44.3295 31.1107 44.3761 31.1107 44.4227C31.1114 45.6341 31.1114 46.8455 31.1114 48.0576C31.1114 48.099 31.1114 48.1396 31.1114 48.1895C31.066 48.1954 31.0312 48.2032 30.9964 48.2032C30.4243 48.2039 29.8515 48.2046 29.2793 48.2032C29.2333 48.2032 29.1867 48.1908 29.1407 48.1842C29.1401 48.1836 29.1433 48.1862 29.1433 48.1862Z" fill="#FAB042"/>
<path d="M21.414 56.0515C21.4081 56.1132 21.3982 56.1748 21.3982 56.2365C21.3976 57.4 21.3976 58.5642 21.3976 59.7278C21.3976 59.7888 21.3976 59.8504 21.3976 59.9298C21.3227 59.9298 21.2662 59.9298 21.2097 59.9298C20.6796 59.9298 20.1495 59.9298 19.6194 59.9305C19.5622 59.9305 19.5044 59.937 19.4473 59.941L19.4512 59.9449C19.4512 58.6462 19.4512 57.3476 19.4512 56.039C19.5024 56.0325 19.5419 56.0226 19.5813 56.0226C20.1429 56.0213 20.7039 56.0213 21.2655 56.0233C21.3155 56.0233 21.3654 56.0423 21.416 56.0528L21.414 56.0515Z" fill="#FAB042"/>
<path d="M21.4081 36.4824C20.143 36.483 18.8778 36.4844 17.6126 36.4844C17.587 36.4844 17.5614 36.4811 17.5391 36.4798C17.5042 36.3591 17.4957 34.7403 17.5279 34.5403C18.8101 34.5403 20.0937 34.5403 21.397 34.5403C21.3989 35.1909 21.4016 35.8383 21.4035 36.4863C21.4035 36.487 21.4081 36.4824 21.4081 36.4824Z" fill="#FAB042"/>
<path d="M27.2376 38.4331C27.6041 38.4344 27.9713 38.4363 28.3379 38.4363C29.1971 38.437 30.0569 38.4363 30.9161 38.4363C30.9733 38.4363 31.0298 38.4363 31.0942 38.4363C31.1007 38.4691 31.1099 38.4934 31.1099 38.5177C31.1106 39.1198 31.1106 39.7212 31.1099 40.3233C31.1099 40.3489 31.102 40.3745 31.0981 40.4007C31.0981 40.4007 31.1027 40.3955 31.102 40.3962C31.0442 40.3948 30.9864 40.3909 30.9293 40.3909C29.76 40.3909 28.5908 40.3909 27.4215 40.3909C27.3643 40.3909 27.3072 40.3909 27.2415 40.3909C27.2356 40.3489 27.2271 40.3142 27.2271 40.2801C27.2264 39.6989 27.2264 39.1178 27.2271 38.536C27.2271 38.5 27.2369 38.4645 27.2422 38.4285C27.2428 38.4285 27.2376 38.4331 27.2376 38.4331Z" fill="#FAB042"/>
<path d="M13.619 48.1914C13.5671 48.1953 13.5152 48.2025 13.4633 48.2025C12.2783 48.2032 11.0939 48.2032 9.90891 48.2025C9.85767 48.2025 9.80709 48.1979 9.74731 48.1953C9.74403 48.1507 9.73877 48.1153 9.73877 48.0799C9.73812 47.504 9.73812 46.9281 9.73877 46.3522C9.73877 46.3109 9.74731 46.2696 9.75191 46.2276C9.75191 46.227 9.74928 46.2309 9.74994 46.2302C9.80578 46.2368 9.86161 46.2506 9.91745 46.2506C11.0828 46.2519 12.2487 46.2512 13.4141 46.2512C13.4758 46.2512 13.5376 46.2512 13.5967 46.2512C13.6078 46.2801 13.6177 46.2939 13.6177 46.3083C13.617 46.9373 13.6157 47.5663 13.6144 48.1953C13.6151 48.196 13.619 48.1914 13.619 48.1914Z" fill="#FAB042"/>
<path d="M15.5782 63.8514C15.5743 63.9084 15.5671 63.9655 15.5664 64.0225C15.5657 64.546 15.5657 65.07 15.5657 65.5934C15.5657 65.6505 15.5657 65.7075 15.5657 65.7725C15.529 65.7797 15.5 65.7908 15.4711 65.7908C14.8734 65.7922 14.2756 65.7915 13.6778 65.7908C13.6522 65.7908 13.6259 65.7849 13.5997 65.7817C13.599 65.7817 13.6036 65.7849 13.6036 65.7843C13.6089 65.7272 13.6187 65.6708 13.6187 65.6144C13.62 65.0844 13.6194 64.5551 13.6194 64.0252C13.6194 63.9688 13.6194 63.9124 13.6194 63.8487C13.6706 63.8441 13.7054 63.8376 13.7409 63.8376C14.3131 63.8369 14.8859 63.8369 15.458 63.8382C15.4987 63.8382 15.5401 63.8494 15.5808 63.856C15.5815 63.8553 15.5782 63.8514 15.5782 63.8514Z" fill="#FAB042"/>
<path d="M25.263 52.0832C25.2683 52.0268 25.2788 51.9704 25.2788 51.914C25.2801 51.3958 25.2795 50.8777 25.2795 50.3601C25.2795 50.3031 25.2795 50.2454 25.2795 50.1699C25.3425 50.166 25.3977 50.1601 25.4529 50.1601C25.9876 50.1594 26.5216 50.1601 27.0563 50.1588C27.1122 50.1588 27.1687 50.1457 27.2252 50.1385L27.2212 50.1345C27.2219 50.774 27.2232 51.4142 27.2238 52.0537C27.2238 52.0635 27.2179 52.0733 27.21 52.0983C27.1719 52.1022 27.1273 52.1107 27.0826 52.1107C26.5262 52.1114 25.9692 52.112 25.4128 52.1101C25.3622 52.1101 25.3123 52.0917 25.2617 52.0819L25.263 52.0832Z" fill="#FAB042"/>
<path d="M25.2624 52.0828C25.2684 52.1293 25.2795 52.1752 25.2802 52.2218C25.2815 52.7983 25.2808 53.3742 25.2808 53.9508C25.2808 53.9816 25.2776 54.0131 25.2756 54.0426C25.1633 54.0773 23.5618 54.0872 23.3516 54.0544C23.3516 53.4149 23.3516 52.7741 23.3516 52.1129C23.4153 52.1129 23.4718 52.1129 23.5283 52.1129C24.0525 52.1129 24.5773 52.1136 25.1015 52.1116C25.156 52.1116 25.2106 52.0946 25.2651 52.0854C25.2644 52.0841 25.2624 52.0828 25.2624 52.0828Z" fill="#FAB042"/>
<path d="M29.1401 48.1829C29.148 48.2288 29.1625 48.274 29.1625 48.3199C29.1638 48.8912 29.1638 49.4625 29.1631 50.0338C29.1631 50.0692 29.1585 50.1046 29.1552 50.1492C29.1014 50.1532 29.056 50.1591 29.0101 50.1591C28.4642 50.1597 27.9183 50.1604 27.3724 50.1584C27.3219 50.1584 27.2713 50.1433 27.2207 50.1348L27.2246 50.1387C27.2246 49.5012 27.2246 48.8637 27.2246 48.2032C27.293 48.2032 27.3481 48.2032 27.404 48.2032C27.9275 48.2032 28.4511 48.2038 28.9746 48.2025C29.0311 48.2025 29.0869 48.192 29.1434 48.1855L29.1401 48.1829Z" fill="#FAB042"/>
<path d="M21.417 56.053C21.4111 56.0064 21.3993 55.9605 21.3993 55.9139C21.3979 55.3374 21.3986 54.7609 21.3986 54.1844C21.3986 54.1535 21.4019 54.1234 21.4045 54.082C22.045 54.082 22.6769 54.082 23.3095 54.082C23.3456 54.1889 23.3548 55.8261 23.3161 56.0222C23.2642 56.0222 23.2077 56.0222 23.1512 56.0222C22.6263 56.0222 22.1015 56.0215 21.5766 56.0235C21.5221 56.0235 21.4682 56.0418 21.4144 56.0517C21.415 56.0517 21.417 56.053 21.417 56.053Z" fill="#FAB042"/>
<path d="M19.4502 59.9405C19.4502 60.5833 19.4502 61.2261 19.4502 61.8767C18.8025 61.8767 18.1699 61.8767 17.5387 61.8767C17.5052 61.76 17.4953 60.1478 17.5275 59.9425C17.5603 59.9385 17.5951 59.9307 17.6306 59.9307C18.2028 59.93 18.7743 59.93 19.3464 59.9307C19.3825 59.9307 19.4187 59.9398 19.4541 59.9444C19.4548 59.9444 19.4502 59.9405 19.4502 59.9405Z" fill="#FAB042"/>
<path d="M15.5833 63.8557C15.578 63.8196 15.5689 63.7836 15.5689 63.7475C15.5682 63.1598 15.5682 62.5728 15.5689 61.9851C15.5689 61.9595 15.5728 61.9339 15.5754 61.8972C16.2165 61.8972 16.8531 61.8972 17.4994 61.8972C17.4994 62.54 17.4994 63.1775 17.4994 63.8367C17.4377 63.8367 17.3819 63.8367 17.326 63.8367C16.8012 63.8367 16.2757 63.836 15.7508 63.8374C15.6937 63.8374 15.6372 63.8459 15.58 63.8511C15.58 63.8518 15.5833 63.8557 15.5833 63.8557Z" fill="#FAB042"/>
<path d="M34.5109 71.3995C35.0945 71.7308 35.6649 72.0546 36.2497 72.3866C36.9939 71.1191 37.731 69.8636 38.4778 68.5918C39.0661 68.9258 39.6402 69.2517 40.235 69.5894C40.405 69.3066 40.5614 69.0363 40.7201 68.7673C40.8774 68.5008 41.0335 68.2336 41.1901 67.9668C41.3498 67.6949 41.5094 67.423 41.669 67.1512C41.8286 66.8793 41.9883 66.6074 42.1479 66.3355C42.3075 66.0637 42.4672 65.7918 42.6268 65.5199C42.7834 65.2531 42.9401 64.9863 43.0968 64.7194C43.2557 64.4488 43.4146 64.1782 43.5838 63.89C44.1733 64.2247 44.7479 64.5509 45.3434 64.889C45.5397 64.5574 45.7239 64.2424 45.909 63.9271C46.0923 63.6149 46.2755 63.3028 46.4588 62.9906C46.645 62.6735 46.8313 62.3563 47.0175 62.0391C47.2037 61.7219 47.39 61.4047 47.5762 61.0876C47.7595 60.7754 47.9427 60.4633 48.126 60.1511C48.3115 59.8352 48.4966 59.5199 48.6925 59.1864C49.2814 59.5207 49.8554 59.8466 50.4449 60.1813C51.1924 58.9082 51.9296 57.6527 52.6749 56.3833C53.2608 56.716 53.8307 57.0395 54.3964 57.3606C54.5027 57.2607 55.4446 55.6742 55.5232 55.4671C54.9552 55.1446 54.3841 54.8204 53.7934 54.4851C53.9215 54.2641 54.0434 54.0539 54.1655 53.8446C54.2861 53.6379 54.4079 53.4318 54.529 53.2254C54.6525 53.0152 54.7755 52.8056 54.9082 52.5797C53.7327 51.9123 52.5721 51.2535 51.3966 50.5861C51.7709 49.9486 52.136 49.3268 52.5122 48.6862C50.7508 47.6862 49.0036 46.6943 47.2434 45.695C47.6196 45.0543 47.9846 44.4326 48.3582 43.7963C47.1881 43.132 46.0317 42.4755 44.8795 41.8214C44.9198 41.6823 46.9442 38.2141 47.0987 38.0173C47.6697 38.3415 48.2444 38.6677 48.8363 39.0038C49.5841 37.73 50.3209 36.4751 51.0692 35.2007C51.6605 35.5364 52.2351 35.8627 52.8217 36.1957C53.9401 34.2907 55.0475 32.4046 56.1631 30.5047C56.7502 30.838 57.3248 31.1642 57.9179 31.501C58.1834 31.0718 58.4231 30.6474 58.672 30.2274C58.9186 29.8102 59.1627 29.3916 59.4077 28.9744C59.6549 28.5534 59.9025 28.1317 60.1589 27.695C60.749 28.03 61.3237 28.3562 61.9132 28.6909C63.0317 26.786 64.1413 24.8961 65.2613 22.9886C65.8508 23.3233 66.4254 23.6495 67.0143 23.9839C68.1313 22.0814 69.238 20.1966 70.3546 18.2948C70.9442 18.6295 71.5188 18.9557 72.1131 19.2931C72.2696 19.0278 72.4171 18.7793 72.5634 18.5301C72.7118 18.2787 72.8591 18.0266 73.0069 17.7749C73.1547 17.5232 73.3025 17.2714 73.4503 17.0197C73.5981 16.768 73.7459 16.5163 73.8937 16.2645C74.0411 16.0134 74.1885 15.7623 74.3459 15.4942C74.937 15.8114 75.5022 16.1523 76.0964 16.4763C76.3373 16.1012 76.5468 15.72 76.7688 15.346C76.9923 14.9694 77.2128 14.5911 77.4345 14.2135C77.6592 13.8309 77.8838 13.4483 78.1085 13.0656C78.3302 12.688 78.5519 12.3104 78.7736 11.9328C78.9949 11.5559 79.2163 11.1789 79.4494 10.7818C80.0356 11.1087 80.607 11.439 81.1992 11.7718C81.9423 10.5063 82.6791 9.2514 83.4133 8.00093C83.5515 8.03492 84.9526 8.8161 85.163 8.97079C85.1644 8.97659 85.1661 8.98177 85.1668 8.98724C85.1676 8.99271 85.1678 8.99784 85.167 9.00326C85.1662 9.00868 85.1644 9.01439 85.1621 9.01976C85.1573 9.03051 85.152 9.04091 85.1467 9.05132C85.1443 9.05669 85.1408 9.06139 85.1384 9.06676C85.1325 9.07683 85.1266 9.0869 85.1207 9.09697C85.1177 9.10201 85.1148 9.10704 85.1118 9.11207C85.103 9.12718 85.0941 9.14228 85.0852 9.15739C78.8288 19.8131 72.5727 30.4682 66.3163 41.1239C66.3104 41.134 66.3045 41.1441 66.2986 41.1541C66.2956 41.1592 66.2927 41.1642 66.2897 41.1693C66.2838 41.1793 66.2779 41.1894 66.2726 41.1998C66.2696 41.2048 66.2673 41.2102 66.2649 41.2156C66.2625 41.221 66.2596 41.226 66.2578 41.2317C66.2561 41.2374 66.2547 41.2425 66.2535 41.2485C66.2527 41.254 66.2525 41.2597 66.2515 41.2844C67.4002 41.9365 68.5572 42.5933 69.7333 43.261C69.5556 43.5906 69.3661 43.8958 69.1855 44.2061C69.0038 44.5183 68.8197 44.8292 68.6268 45.1577C68.9716 45.3786 69.3253 45.5626 69.6689 45.7611C70.0156 45.9612 70.3648 46.157 70.7129 46.3546C71.0658 46.5549 71.4187 46.7553 71.7715 46.9556C72.1196 47.1532 72.4678 47.3509 72.8159 47.5485C73.1634 47.7458 73.5115 47.9434 73.8769 48.1509C73.7996 48.3218 73.6989 48.4702 73.6106 48.6248C73.5177 48.7869 73.422 48.9474 73.3274 49.1085C73.2357 49.2645 73.1441 49.4206 73.0525 49.5767C72.9616 49.7315 72.871 49.8857 72.772 50.0543C73.9457 50.7207 75.1027 51.3775 76.2788 52.0452C75.9131 52.6842 75.5412 53.3013 75.17 53.9431C75.4626 54.1243 75.7561 54.2809 76.0439 54.4459C76.334 54.6123 76.6253 54.7768 76.9162 54.942C77.2071 55.1071 77.4979 55.2723 77.7888 55.4374C78.0785 55.6019 78.3682 55.7663 78.6675 55.9362C78.2935 56.5731 77.9288 57.1942 77.5534 57.8336C76.9746 57.505 76.4012 57.1795 75.8111 56.8445C75.4349 57.4851 75.0698 58.1069 74.6966 58.7425C74.1059 58.4071 73.5313 58.0809 72.9424 57.7466C72.1963 59.0172 71.4588 60.2733 70.7124 61.5446C70.1247 61.2109 69.5501 60.8847 68.9552 60.5469C68.8242 60.7646 68.7057 60.9692 68.5859 61.1731C68.4618 61.3845 68.3376 61.596 68.2135 61.8074C68.0923 62.0138 67.9715 62.2196 67.8384 62.4462C67.6801 62.3747 67.5392 62.283 67.3931 62.2017C67.2489 62.1224 67.1066 62.0399 66.9635 61.9587C66.8157 61.8748 66.6678 61.7908 66.52 61.7069C66.3776 61.626 66.2351 61.5452 66.0777 61.4558C65.7049 62.0908 65.3395 62.7132 64.9644 63.352C64.3749 63.0173 63.8003 62.6911 63.2113 62.3567C62.8363 62.9955 62.4712 63.6172 62.094 64.2598C61.5011 63.9349 60.9326 63.5996 60.3393 63.2712C59.9687 63.9024 59.6037 64.5242 59.2257 65.168C58.6358 64.8339 58.0615 64.5071 57.4704 64.1723C57.2653 64.4905 57.0895 64.8103 56.903 65.1239C56.7179 65.4351 56.5358 65.7479 56.3526 66.06C56.1663 66.3772 55.9801 66.6944 55.7939 67.0116C55.6113 67.3225 55.4292 67.6327 55.2359 67.9619C54.6452 67.6265 54.0706 67.3003 53.4811 66.9656C53.1056 67.605 52.7409 68.2261 52.3652 68.8661C51.7762 68.5318 51.2022 68.2059 50.6115 67.8705C50.2361 68.5099 49.871 69.1317 49.4971 69.7686C48.9063 69.4332 48.3317 69.107 47.738 68.7699C47.6079 68.9889 47.4866 69.1927 47.3659 69.3969C47.2412 69.6081 47.1176 69.8198 46.9935 70.0313C46.8726 70.2371 46.7518 70.4429 46.6206 70.6663C46.0371 70.335 45.463 70.0091 44.8747 69.6751C44.4997 70.3139 44.1346 70.9356 43.7603 71.5731C43.1719 71.2391 42.5979 70.9132 42.0024 70.5752C41.7452 71.0106 41.4993 71.4307 41.2525 71.8511C41.0071 72.269 40.7618 72.6868 40.5168 73.1041C40.2696 73.5251 40.022 73.9468 39.7663 74.3822C39.175 74.0465 38.5998 73.72 38.0097 73.385C37.6361 74.0212 37.2711 74.643 36.8956 75.2824C36.3061 74.9477 35.7321 74.6218 35.142 74.2868C34.7669 74.9255 34.4022 75.5467 34.0397 76.164C33.9019 76.1294 32.4438 75.31 32.2861 75.1819C33.0248 73.9306 33.7616 72.6757 34.5109 71.3995Z" fill="#FAB042"/>
</svg>
