<svg width="173" height="600" viewBox="0 0 173 600" fill="none" xmlns="http://www.w3.org/2000/svg">
<rect x="16.2246" y="16.2213" width="155.294" height="582.779" fill="#FFE1B5" stroke="#FFE1B5" stroke-width="2"/>
<path d="M112.169 262.727V271.552V272.204L112.799 272.035L139.786 264.795V275.042L112.54 282.352L112.169 282.451V282.834V285.485L101.887 288.25V285.856V285.205L101.258 285.372L93.2227 287.516L92.8516 287.615V287.999V290.662L82.5694 293.415V291.033V290.381L81.9401 290.55L54.9531 297.777V287.53L82.1988 280.234L82.5694 280.134V279.751V270.657L92.8516 267.904V276.717V277.368L93.4805 277.2L101.516 275.056L101.887 274.957V274.573V265.48L112.169 262.727Z" fill="#FFE1B5" stroke="#FFE1B5"/>
<path d="M81.081 297.514V299.507V300.159L81.7105 299.99L113.326 291.516L113.696 291.416V291.033V288.772L123.978 286.018V319.356L113.696 322.109V302.315V301.663L113.067 301.832L81.4516 310.306L81.081 310.406V310.789V330.851L70.7988 333.605V300.267L81.081 297.514Z" fill="#FFE1B5" stroke="#FFE1B5"/>
<path d="M103.528 320.648L103.157 320.748V321.131V330.859V331.51L103.787 331.342L138.621 322.008V354.08L128.339 356.833V335.66V335.008L127.71 335.177L103.528 341.658L103.157 341.757V342.141V349.9V350.553L103.788 350.383L120.419 345.902V356.149L74.9115 368.415V358.168L92.5056 353.417L92.8753 353.317V352.934V345.162V344.51L92.2458 344.679L68.2147 351.122L67.8442 351.222V351.605V373.046L57.562 375.8V354.626V353.974L56.9321 354.144L50.6172 355.842V345.595L57.1919 343.827L57.562 343.727V343.344V336.808L67.8442 334.055V340.323V340.975L68.4737 340.806L92.5048 334.363L92.8753 334.263V333.88V324.152V323.5L92.2459 323.669L85.0153 325.606V315.359L92.5047 313.353L92.8753 313.253V312.87V311.047L103.157 308.294V309.849V310.501L103.787 310.331L109.914 308.683V318.93L103.528 320.648Z" fill="#FFE1B5" stroke="#FFE1B5"/>
<path d="M74.5974 183.936L74.968 183.836V183.453V182.194L85.2502 179.441V263.486L74.968 266.239V250.544V249.892L74.3386 250.061L60.1606 253.859L59.79 253.959V254.342V258.321L49.5078 261.074V173.695L59.79 170.942V187.251V187.903L60.4194 187.734L74.5974 183.936ZM59.79 243.073V243.724L60.4194 243.556L74.5974 239.757L74.968 239.658V239.274V194.735V194.083L74.3386 194.252L60.1606 198.05L59.79 198.149V198.533V213.325V213.977L60.4193 213.808L70.5582 211.094V221.341L60.1607 224.125L59.79 224.224V224.608V243.073Z" fill="#FFE1B5" stroke="#FFE1B5"/>
<path d="M108.328 157.937L118.61 155.184V168.221V168.873L119.24 168.704L135.195 164.423V174.67L118.98 179.021L118.61 179.12V179.503V183.578V184.229L119.24 184.061L140.924 178.25V188.497L88.9727 202.407V192.16L107.957 187.082L108.328 186.983V186.599V182.525V181.873L107.698 182.042L93.8741 185.747V175.5L107.957 171.725L108.328 171.626V171.242V157.937Z" fill="#FFE1B5" stroke="#FFE1B5"/>
<path d="M115.442 252.098V241.851L121.303 240.271L121.673 240.171V239.788V212.046V211.395L121.043 211.563L90.3457 219.781V209.534L121.302 201.247L121.673 201.148V200.764V198.002L131.955 195.248V197.743V198.395L132.585 198.226L138.712 196.578V206.824L132.325 208.543L131.955 208.642V209.025V247.666L115.442 252.098Z" fill="#FFE1B5" stroke="#FFE1B5"/>
<path d="M114.028 230.053L102.906 233.032V222.785L114.028 219.806V230.053Z" fill="#FFE1B5" stroke="#FFE1B5"/>
<path d="M54.2255 430.046L44.375 442.541V428.185L68.2109 397.972L68.3183 397.836V397.663V379.857L78.6005 377.104V399.144L65.5078 415.743L65.4003 415.879V416.053V461.663L55.1182 464.416V430.356V428.914L54.2255 430.046Z" fill="#FFE1B5" stroke="#FFE1B5"/>
<path d="M106.226 426.582V426.836L106.431 426.986L134.272 447.369L134.466 447.511L134.698 447.448L143.156 445.173V455.42L129.994 458.956L95.9437 434.026V420.202V419.55L95.3143 419.719L69.2676 426.696V416.449L95.5731 409.402L95.9437 409.303V408.919V390.901L106.226 388.147V405.898V406.55L106.855 406.381L146.027 395.894V397.731L137.935 408.305L106.597 416.698L106.226 416.797V417.181V426.582Z" fill="#FFE1B5" stroke="#FFE1B5"/>
<path d="M80.3593 462.002L80.5195 461.959L80.6223 461.829L98.7761 438.816L105.942 444.067L84.6157 471.108L55.1191 479.019V468.773L80.3593 462.002Z" fill="#FFE1B5" stroke="#FFE1B5"/>
<path d="M130.374 380.914V381.168L130.579 381.318L134.548 384.221L127.183 393.551L120.092 388.358V374.829L130.374 372.076V380.914Z" fill="#FFE1B5" stroke="#FFE1B5"/>
<path d="M124.272 550.015L113.15 552.994V542.747L124.272 539.768V550.015Z" fill="#FFE1B5" stroke="#FFE1B5"/>
<path d="M142.823 518.189L148.8 516.579V526.825L142.563 528.505L142.193 528.605V528.988V569.86L125.681 574.292V564.045L131.541 562.465L131.911 562.365V561.982V532.009V531.358L131.282 531.526L95.3066 541.161V530.914L131.54 521.21L131.911 521.111V520.727V517.964L142.193 515.211V517.706V518.359L142.823 518.189Z" fill="#FFE1B5" stroke="#FFE1B5"/>
<path d="M130.321 503.139V503.791L130.951 503.622L150.379 498.413V508.66L98.791 522.482V512.235L119.669 506.643L120.039 506.544V506.16V502.65V501.999L119.41 502.167L106.764 505.547V495.3L119.668 491.851L120.039 491.752V491.368V477.499L130.321 474.745V488.334V488.986L130.951 488.817L144.186 485.275V495.522L130.692 499.134L130.321 499.233V499.617V503.139Z" fill="#FFE1B5" stroke="#FFE1B5"/>
<path d="M88.635 516.955L96.0609 521.868L86.1094 535.246L86.0106 535.378V535.544V576.716L75.7284 579.47V550.687V549.178L74.8273 550.389L68.6118 558.738L55.5082 562.353V552.095L64.1307 549.69L64.2953 549.644L64.3974 549.507L75.6294 534.426L75.7284 534.293V534.127V514.672V514.017L75.0966 514.19L60.7808 518.101L60.6215 518.144L60.5195 518.274L47.4174 534.943L40.2517 529.692L58.2721 506.757L58.3789 506.621V506.448V492.416L68.6611 489.663V505.044V505.699L69.2926 505.527L75.36 503.872L75.7284 503.772V503.39V481.033L86.0106 478.268V500.306V500.961L86.6424 500.788L98.4461 497.564V507.809L86.3788 511.106L86.0106 511.206V511.588V518.972V520.481L86.9117 519.27L88.635 516.955Z" fill="#FFE1B5" stroke="#FFE1B5"/>
<path d="M48.1914 292.161L75.8077 284.765V287.799L87.0899 284.778V281.731L95.1253 279.588V282.634L106.408 279.6V276.567L134.024 269.158V257.876L106.408 265.284V255.807L95.1253 258.828V268.306L87.0899 270.449V260.985L75.8077 264.006V273.483L48.1914 280.879V292.161Z" fill="#FFE1B5"/>
<path d="M64.0332 293.615V327.988L75.3154 324.967V304.521L106.931 296.047V316.493L118.213 313.472V279.099L106.931 282.12V284.765L75.3154 293.239V290.594L64.0332 293.615Z" fill="#FFE1B5"/>
<path d="M97.3918 314.863L104.149 313.046V301.763L97.3918 303.581V301.375L86.1096 304.396V306.602L78.2497 308.708V319.99L86.1096 317.884V327.612L62.0786 334.056V327.136L50.7964 330.157V337.077L43.8516 338.944V350.227L50.7964 348.359V370.184L62.0786 367.162V345.338L86.1096 338.894V346.667L68.1459 351.518V362.8L114.654 350.264V338.982L97.3918 343.633V335.873L121.573 329.392V351.217L132.856 348.196V315.089L97.3918 324.591V314.863Z" fill="#FFE1B5"/>
<path d="M68.1926 177.185L54.0146 180.983V164.022L42.7324 167.044V255.458L54.0146 252.437V248.075L68.1926 244.276V260.623L79.4748 257.602V172.522L68.1926 175.543V177.185ZM54.0146 236.805V218.34L64.7828 215.457V204.175L54.0146 207.058V192.266L68.1926 188.467V233.007L54.0146 236.805Z" fill="#FFE1B5"/>
<path d="M135.142 182.613L82.1914 196.791V185.508L101.547 180.331V176.257L87.0929 180.131V168.848L101.547 164.975V151.286L112.829 148.265V161.954L129.414 157.504V168.786L112.829 173.236V177.31L135.142 171.33V182.613Z" fill="#FFE1B5"/>
<path d="M132.936 200.939V189.657L126.179 191.475V188.328L114.897 191.349V194.496L83.5703 202.882V214.165L114.897 205.778V233.52L108.667 235.2V246.482L126.179 241.781V202.757L132.936 200.939Z" fill="#FFE1B5"/>
<path d="M96.1309 227.416L108.253 224.169V212.887L96.1309 216.133V227.416Z" fill="#FFE1B5"/>
<path d="M48.3525 458.799L59.6347 455.778V409.785L72.8349 393.049V370.184L61.5527 373.205V391.395L37.6094 421.744V437.714L48.3525 424.088V458.799Z" fill="#FFE1B5"/>
<path d="M100.46 420.316V410.914L131.963 402.477L140.261 391.634V388.976L100.46 399.632V381.229L89.1781 384.25V402.653L62.502 409.798V421.08L89.1781 413.935V428.013L123.626 453.234L137.391 449.536V438.254L128.302 440.699L100.46 420.316Z" fill="#FFE1B5"/>
<path d="M73.9641 455.252L48.3535 462.121V473.404L78.6399 465.28L100.389 437.702L92.4167 431.86L73.9641 455.252Z" fill="#FFE1B5"/>
<path d="M128.996 377.856L124.608 374.647V365.157L113.326 368.178V382.344L121.011 387.972L128.996 377.856Z" fill="#FFE1B5"/>
<path d="M106.377 547.378L118.499 544.132V532.849L106.377 536.096V547.378Z" fill="#FFE1B5"/>
<path d="M136.42 508.291L125.138 511.312V514.459L88.5332 524.262V535.544L125.138 525.741V555.714L118.907 557.394V568.676L136.42 563.975V522.72L143.026 520.94V509.658L136.42 511.438V508.291Z" fill="#FFE1B5"/>
<path d="M124.548 496.872V493.349L138.412 489.638V478.356L124.548 482.067V467.826L113.266 470.847V485.1L99.9903 488.648V499.93L113.266 496.383V499.893L92.0176 505.584V516.866L144.605 502.776V491.494L124.548 496.872Z" fill="#FFE1B5"/>
<path d="M90.504 515.475L82.2429 510.009L80.2372 512.704V505.321L92.6726 501.923V490.641L80.2372 494.038V471.349L68.955 474.382V497.122L62.8877 498.777V482.744L51.6055 485.765V500.181L33.2656 523.523L41.2384 529.364L54.6391 512.316L68.955 508.404V527.86L57.7229 542.94L48.7348 545.448V556.742L62.6369 552.906L68.955 544.42V573.854L80.2372 570.832V529.276L90.504 515.475Z" fill="#FFE1B5"/>
<path d="M65.0658 68.8536C65.0658 67.5578 65.0658 66.262 65.0658 64.9059C71.7519 64.9059 78.3516 64.9059 85.1082 64.9059C85.1082 66.2117 85.1082 67.5317 85.1082 68.8536L85.1464 68.8234C82.4824 68.8234 79.8184 68.8234 77.1222 68.8234C77.1222 79.5942 77.1222 90.2482 77.1222 100.928C87.8527 100.928 98.5309 100.928 109.253 100.928C109.253 98.2101 109.253 95.5702 109.253 92.9303L109.223 92.9686C110.521 92.9686 111.819 92.9686 113.199 92.9686C113.199 98.3328 113.199 103.609 113.199 108.963C115.905 108.963 118.531 108.963 121.276 108.963C121.276 105.033 121.276 101.073 121.276 97.029C122.652 97.029 123.909 97.029 125.288 97.029C125.288 95.6668 125.288 94.3831 125.288 93.0168C128.002 93.0168 130.6 93.0168 133.318 93.0168C133.318 91.6567 133.318 90.3709 133.318 88.9685C136.056 88.9685 138.68 88.9685 141.382 88.9685C141.382 87.5922 141.382 86.3347 141.382 84.9564C144.087 84.9564 146.708 84.9564 149.413 84.9564C149.413 83.5801 149.413 82.3226 149.413 80.9906C150.749 80.9906 152.002 80.9906 153.332 80.9906C153.332 87.5761 153.332 94.1859 153.332 100.959C152.047 100.959 150.723 100.959 149.401 100.959L149.431 100.997C149.431 96.9927 149.431 92.9907 149.431 88.9645C148.028 88.9645 146.743 88.9645 145.34 88.9645C145.34 90.3066 145.34 91.5903 145.34 92.9525C142.624 92.9525 140.028 92.9525 137.312 92.9525C137.312 94.3167 137.312 95.6004 137.312 96.9626C134.596 96.9626 132 96.9626 129.284 96.9626C129.284 98.3268 129.284 99.6085 129.284 101.009C127.883 101.009 126.598 101.009 125.239 101.009C125.239 105.063 125.239 108.999 125.239 113.051C121.197 113.051 117.237 113.051 113.308 113.051C113.308 114.458 113.308 115.741 113.308 117.069C118.704 117.069 124.022 117.069 129.34 117.069L129.302 117.039C129.302 118.335 129.302 119.631 129.302 121.049C121.213 121.049 113.207 121.049 105.203 121.049L105.233 121.088C105.233 118.428 105.233 115.766 105.233 113.025C106.656 113.025 107.915 113.025 109.201 113.025C109.201 110.317 109.201 107.693 109.201 104.957C97.1506 104.957 85.1605 104.957 73.0558 104.957C73.0558 92.8519 73.0558 80.8618 73.0558 68.8254C70.3032 68.8254 67.6614 68.8254 65.0215 68.8254L65.0658 68.8536Z" fill="#FFE1B5"/>
<path d="M40.9503 80.8707C39.6525 80.8707 38.3547 80.8707 36.9723 80.8707C36.9723 78.1846 36.9723 75.587 36.9723 72.8707C35.6102 72.8707 34.3264 72.8707 32.9844 72.8707C32.9844 60.784 32.9844 48.8161 32.9844 36.7858C35.59 36.7858 38.1816 36.7858 40.8959 36.7858C40.8959 38.0695 40.8959 39.3532 40.8959 40.7174C42.2722 40.7174 43.5318 40.7174 44.908 40.7174C44.908 43.4217 44.908 46.0434 44.908 48.7477C46.2843 48.7477 47.5419 48.7477 48.9202 48.7477C48.9202 52.79 48.9202 56.7518 48.9202 60.7961C50.2944 60.7961 51.554 60.7961 52.9323 60.7961C52.9323 63.4983 52.9323 66.1221 52.9323 68.8545C57.055 68.8545 61.0611 68.8545 65.0652 68.8545L65.027 68.8243C65.027 70.1423 65.027 71.4622 65.027 72.8847C62.2563 72.8847 59.6426 72.8847 57.0168 72.8847C57.0168 74.2912 57.0168 75.589 57.0168 76.8848C54.3307 76.8767 51.6425 76.8667 48.9564 76.8586L48.9866 76.8888C48.9866 72.8868 48.9866 68.8827 48.9866 64.7619C47.5902 64.7619 46.3064 64.7619 44.9463 64.7619C44.9463 60.7075 44.9463 56.7719 44.9463 52.7195C43.5841 52.7195 42.3004 52.7195 40.9382 52.7195C40.9382 50.0052 40.9382 47.4076 40.9382 44.7919C39.5438 44.7919 38.2359 44.7919 36.9723 44.7919C36.9723 52.8584 36.9723 60.8363 36.9723 68.8988C38.3124 68.8988 39.57 68.8988 40.9181 68.8988C40.9181 72.9572 40.9181 76.9331 40.9181 80.907L40.9503 80.8707Z" fill="#FFE1B5"/>
<path d="M101.228 52.7835C101.228 51.4857 101.228 50.1879 101.228 48.8076C102.572 48.8076 103.829 48.8076 105.208 48.8076C105.208 47.4474 105.208 46.1617 105.208 44.7995C107.922 44.7995 110.517 44.7995 113.234 44.7995C113.234 43.4393 113.234 42.1556 113.234 40.8075C115.944 40.8075 118.536 40.8075 121.2 40.8075C121.2 47.4072 121.2 54.0149 121.2 60.7815C119.908 60.7815 118.586 60.7815 117.264 60.7815L117.294 60.8198C117.294 56.8197 117.294 52.8217 117.294 48.8116C114.544 48.8116 111.9 48.8116 109.173 48.8116C109.173 50.1537 109.173 51.4112 109.173 52.7533C106.459 52.7533 103.825 52.7533 101.191 52.7533L101.228 52.7835Z" fill="#FFE1B5"/>
<path d="M113.234 68.8221C113.234 71.454 113.234 74.0878 113.234 76.8363C111.88 76.8363 110.598 76.8363 109.238 76.8363C109.238 78.2066 109.238 79.4641 109.238 80.8364C107.88 80.8364 106.598 80.8364 105.197 80.8364C105.197 82.275 105.197 83.599 105.197 84.9229L105.236 84.8927C103.918 84.8927 102.6 84.8927 101.193 84.8927C101.193 82.114 101.193 79.4883 101.193 76.8625C102.515 76.8625 103.837 76.8625 105.274 76.8625C105.274 75.4963 105.274 74.2146 105.274 72.8222C106.67 72.8222 107.95 72.8222 109.306 72.8222C109.306 71.4499 109.306 70.1944 109.306 68.8523C110.68 68.8523 111.976 68.8523 113.272 68.8523L113.234 68.8221Z" fill="#FFE1B5"/>
<path d="M85.108 137.128C85.108 138.423 85.108 139.719 85.108 141.075C78.4218 141.075 71.8222 141.075 65.0656 141.075C65.0656 139.77 65.0656 138.45 65.0656 137.128L65.0273 137.158C71.7337 137.158 78.442 137.158 85.1483 137.158L85.108 137.128Z" fill="#FFE1B5"/>
<path d="M145.373 109C145.373 111.634 145.373 114.266 145.373 117.037C139.965 117.037 134.633 117.037 129.301 117.037L129.339 117.067C129.339 115.747 129.339 114.425 129.339 112.998C133.456 112.998 137.41 112.998 141.442 112.998C141.442 111.632 141.442 110.375 141.442 109.03C142.818 109.03 144.114 109.03 145.41 109.03L145.373 109Z" fill="#FFE1B5"/>
<path d="M40.9497 113.012C39.6539 113.012 38.3581 113.012 37.002 113.012C37.002 106.326 37.002 99.7264 37.002 92.9697C38.3078 92.9697 39.6277 92.9697 40.9497 92.9697L40.9195 92.9315C40.9195 99.6378 40.9195 106.346 40.9195 113.052L40.9497 113.012Z" fill="#FFE1B5"/>
<path d="M40.9482 92.9681C40.9482 88.9339 40.9482 84.9016 40.9482 80.8674L40.918 80.9056C42.2399 80.9056 43.5598 80.9056 44.9925 80.9056C44.9925 79.5253 44.9925 78.2456 44.9925 76.8875C46.3969 76.8875 47.6907 76.8875 48.9845 76.8875L48.9543 76.8573C48.9543 79.5133 48.9543 82.1712 48.9543 84.9077C47.5438 84.9077 46.2862 84.9077 44.918 84.9077C44.918 87.6039 44.918 90.2236 44.918 92.9299C43.5095 92.9299 42.2138 92.9299 40.918 92.9299L40.9482 92.9681Z" fill="#FFE1B5"/>
<path d="M85.1113 68.8546C86.4091 68.8546 87.7089 68.8546 89.1214 68.8546C89.1214 67.5508 89.1214 66.2711 89.1214 64.8445C90.55 64.8445 91.8679 64.8445 93.1859 64.8445L93.1557 64.8063C93.1637 67.4924 93.1738 70.1806 93.1818 72.8667C90.5319 72.8667 87.882 72.8667 85.1516 72.8667C85.1516 71.41 85.1516 70.1162 85.1516 68.8244L85.1113 68.8546Z" fill="#FFE1B5"/>
<path d="M93.1903 64.8446C93.1903 62.2147 93.1903 59.587 93.1903 56.8082C94.5706 56.8082 95.8906 56.8082 97.2085 56.8082L97.1783 56.77C97.1783 59.422 97.1783 62.0719 97.1783 64.8063C95.7477 64.8063 94.4539 64.8063 93.1602 64.8063L93.1903 64.8446Z" fill="#FFE1B5"/>
<path d="M117.261 60.7783C117.261 63.4081 117.261 66.0399 117.261 68.8227C115.874 68.8227 114.554 68.8227 113.234 68.8227L113.273 68.8529C113.273 66.2009 113.273 63.551 113.273 60.8166C114.703 60.8166 115.997 60.8166 117.291 60.8166L117.261 60.7783Z" fill="#FFE1B5"/>
<path d="M149.393 100.96C149.393 103.59 149.393 106.222 149.393 109.004C148.007 109.004 146.687 109.004 145.367 109.004L145.405 109.034C145.405 106.383 145.405 103.733 145.405 100.998C146.836 100.998 148.13 100.998 149.424 100.998L149.393 100.96Z" fill="#FFE1B5"/>
<path d="M44.9663 121.049C43.6725 121.049 42.3787 121.049 40.9482 121.049C40.9482 118.321 40.9482 115.667 40.9482 113.013L40.918 113.051C42.2661 113.043 43.6142 113.035 44.9623 113.027C44.9542 115.713 44.9442 118.401 44.9361 121.087L44.9663 121.049Z" fill="#FFE1B5"/>
<path d="M48.9878 129.086C47.694 129.086 46.4002 129.086 44.9696 129.086C44.9696 126.357 44.9696 123.703 44.9696 121.049L44.9395 121.088C46.2876 121.079 47.6357 121.071 48.9838 121.063C48.9757 123.75 48.9657 126.438 48.9576 129.124L48.9878 129.086Z" fill="#FFE1B5"/>
<path d="M105.204 121.049C105.204 123.679 105.204 126.307 105.204 129.086C103.823 129.086 102.503 129.086 101.186 129.086L101.216 129.124C101.216 126.472 101.216 123.822 101.216 121.088C102.646 121.088 103.94 121.088 105.234 121.088L105.204 121.049Z" fill="#FFE1B5"/>
<path d="M105.197 84.9262C106.493 84.9262 107.787 84.9262 109.223 84.9262C109.223 87.6606 109.223 90.3146 109.223 92.9705L109.254 92.9323C107.936 92.9323 106.618 92.9323 105.235 92.9323C105.235 90.1516 105.235 87.5238 105.235 84.896L105.197 84.9262Z" fill="#FFE1B5"/>
<path d="M57.0157 133.103C54.3879 133.103 51.7581 133.103 48.9794 133.103C48.9794 131.722 48.9794 130.404 48.9794 129.084L48.9492 129.123C51.6374 129.115 54.3235 129.107 57.0117 129.099C57.0036 130.447 56.9936 131.793 56.9855 133.141L57.0157 133.103Z" fill="#FFE1B5"/>
<path d="M101.196 129.084C101.196 130.378 101.196 131.674 101.196 133.103C98.466 133.103 95.8141 133.103 93.1602 133.103L93.1903 133.141C93.1823 131.793 93.1722 130.447 93.1642 129.099C95.8523 129.107 98.5385 129.115 101.227 129.123L101.196 129.084Z" fill="#FFE1B5"/>
<path d="M84.9557 128.916C84.9557 130.252 84.9557 131.589 84.9557 133.064C78.2731 133.064 71.7826 133.064 65.2871 133.064L65.361 133.104C65.3413 131.712 65.3167 130.322 65.297 128.931C71.8761 128.939 78.4504 128.947 85.0296 128.955L84.9557 128.916Z" fill="#FFE1B5"/>
<path d="M65.0706 137.13C62.4408 137.13 59.809 137.13 57.0263 137.13C57.0263 135.744 57.0263 134.424 57.0263 133.104L56.9961 133.142C59.6822 133.134 62.3704 133.124 65.0565 133.116C65.0485 134.464 65.0404 135.812 65.0324 137.16L65.0706 137.13Z" fill="#FFE1B5"/>
<path d="M93.1557 133.104C93.1557 134.399 93.1557 135.693 93.1557 137.13C90.4212 137.13 87.7673 137.13 85.1113 137.13L85.1496 137.16C85.1415 135.812 85.1335 134.464 85.1254 133.116C87.8116 133.124 90.4997 133.134 93.1859 133.142L93.1557 133.104Z" fill="#FFE1B5"/>
<path d="M97.1962 56.8083C97.1962 55.5146 97.1962 54.2228 97.1962 52.7821C98.5866 52.7821 99.9045 52.7821 101.222 52.7821L101.184 52.752C101.184 54.0679 101.184 55.3818 101.184 56.7701C99.7475 56.7701 98.4578 56.7701 97.166 56.7701L97.1962 56.8083Z" fill="#FFE1B5"/>
<path d="M48.9777 113.047C47.6316 113.047 46.2855 113.047 44.9395 113.047C44.9395 107.745 44.9395 102.443 44.9395 96.954C46.3399 96.954 47.6598 96.954 48.9777 96.954C48.9777 102.318 48.9777 107.682 48.9777 113.047Z" fill="#FFE1B5"/>
<path d="M48.9492 96.9741C48.9492 94.3484 48.9492 91.7226 48.9492 88.9177C50.3557 88.9177 51.6716 88.9177 52.9875 88.9177C52.9875 91.5435 52.9875 94.1693 52.9875 96.9741C51.581 96.9741 50.2651 96.9741 48.9492 96.9741Z" fill="#FFE1B5"/>
<path d="M52.9875 121.083C51.6414 121.083 50.2953 121.083 48.9492 121.083C48.9492 118.397 48.9492 115.713 48.9492 113.026C50.241 113.026 51.5327 113.026 52.9875 113.026C52.9875 115.783 52.9875 118.433 52.9875 121.083Z" fill="#FFE1B5"/>
<path d="M93.2218 125.118C93.2218 122.488 93.2218 119.858 93.2218 117.083C94.5598 117.083 95.8777 117.083 97.1957 117.083L97.1615 117.049C97.1615 119.685 97.1615 122.319 97.1615 125.088C95.7771 125.088 94.4814 125.088 93.1876 125.088C93.1856 125.085 93.2218 125.118 93.2218 125.118Z" fill="#FFE1B5"/>
<path d="M93.1736 129.119C90.4875 129.119 87.8033 129.119 85.1172 129.119C85.1172 127.823 85.1172 126.529 85.1172 125.119C87.8939 125.119 90.5539 125.119 93.2139 125.119C93.2139 125.119 93.1776 125.087 93.1796 125.087C93.1776 126.431 93.1756 127.775 93.1736 129.119Z" fill="#FFE1B5"/>
<path d="M52.9902 88.9398C52.9902 86.3141 52.9902 83.6883 52.9902 80.8834C54.3967 80.8834 55.7126 80.8834 57.0285 80.8834C57.0285 83.5092 57.0285 86.135 57.0285 88.9398C55.6221 88.9398 54.3061 88.9398 52.9902 88.9398Z" fill="#FFE1B5"/>
<path d="M65.0584 129.12C62.3722 129.12 59.6881 129.12 57.002 129.12C57.002 127.774 57.002 126.428 57.002 125.081C59.6277 125.081 62.2535 125.081 65.0584 125.081C65.0584 126.486 65.0584 127.804 65.0584 129.12Z" fill="#FFE1B5"/>
<path d="M57.002 80.9051C57.002 79.559 57.002 78.2129 57.002 76.8668C59.6318 76.8668 62.2616 76.8668 64.9578 76.8668C64.9578 78.223 64.9578 79.4745 64.9578 80.9051C62.3099 80.9051 59.6559 80.9051 57.002 80.9051Z" fill="#FFE1B5"/>
<path d="M97.1964 117.084C97.1964 115.786 97.1964 114.488 97.1964 113.126C98.5364 113.126 99.79 113.126 101.112 113.126C101.112 114.375 101.112 115.627 101.112 117.05C99.8061 117.05 98.4841 117.05 97.1622 117.05C97.1602 117.05 97.1964 117.084 97.1964 117.084Z" fill="#FFE1B5"/>
<path d="M57.0285 125.099C55.7388 125.099 54.451 125.099 52.9902 125.099C52.9902 123.686 52.9902 122.374 52.9902 121.06C54.28 121.06 55.5677 121.06 57.0285 121.06C57.0285 122.471 57.0285 123.785 57.0285 125.099Z" fill="#FFE1B5"/>
<path d="M93.1602 72.8464C95.7859 72.8464 98.4117 72.8464 101.217 72.8464C101.217 74.2529 101.217 75.5688 101.217 76.8847C98.5908 76.8847 95.965 76.8847 93.1602 76.8847C93.1602 75.4783 93.1602 74.1623 93.1602 72.8464Z" fill="#FFE1B5"/>
<rect x="1" y="1" width="155.294" height="582.779" fill="#333333" stroke="#FFE1B5" stroke-width="2"/>
<path d="M96.9466 247.505V256.33V256.982L97.5761 256.813L124.563 249.573V259.82L97.317 267.129L96.9466 267.229V267.612V270.263L86.6644 273.027V270.633V269.983L86.0355 270.15L78.0001 272.294L77.629 272.393V272.777V275.439L67.3468 278.193V275.811V275.159L66.7174 275.328L39.7305 282.555V272.308L66.9761 265.011L67.3468 264.912V264.528V255.435L77.629 252.682V261.495V262.146L78.2578 261.978L86.2933 259.834L86.6644 259.735V259.351V250.258L96.9466 247.505Z" stroke="#FFE1B5"/>
<path d="M65.8545 282.291V284.285V284.937L66.4839 284.768L98.0991 276.294L98.4697 276.194V275.811V273.549L108.752 270.796V304.134L98.4697 306.887V287.093V286.441L97.8402 286.61L66.225 295.084L65.8545 295.183V295.567V315.629L55.5723 318.383V285.045L65.8545 282.291Z" stroke="#FFE1B5"/>
<path d="M88.301 305.426L87.9309 305.525V305.909V315.636V316.288L88.5603 316.119L123.395 306.786V338.858L113.112 341.611V320.438V319.786L112.483 319.955L88.3015 326.436L87.9309 326.535V326.919V334.678V335.331L88.561 335.161L105.193 330.68V340.927L59.6849 353.193V342.946L77.2791 338.195L77.6487 338.095V337.712V329.94V329.288L77.0192 329.457L52.9881 335.9L52.6176 336V336.383V357.824L42.3354 360.578V339.404V338.752L41.7056 338.921L35.3906 340.62V330.373L41.9653 328.605L42.3354 328.505V328.122V321.586L52.6176 318.833V325.101V325.753L53.2471 325.584L77.2782 319.14L77.6487 319.041V318.658V308.93V308.278L77.0193 308.447L69.7888 310.384V300.137L77.2781 298.131L77.6487 298.031V297.648V295.825L87.9309 293.072V294.626V295.279L88.5608 295.109L94.6877 293.461V303.708L88.301 305.426Z" stroke="#FFE1B5"/>
<path d="M59.3649 168.714L59.7355 168.615V168.231V166.973L70.0177 164.219V248.264L59.7355 251.018V235.323V234.671L59.1062 234.84L44.9282 238.638L44.5576 238.737V239.121V243.1L34.2754 245.853V158.473L44.5576 155.72V172.03V172.681L45.187 172.512L59.3649 168.714ZM44.5576 227.851V228.503L45.187 228.334L59.3649 224.536L59.7355 224.437V224.053V179.513V178.862L59.1062 179.03L44.9282 182.829L44.5576 182.928V183.312V198.104V198.755L45.1869 198.587L55.3258 195.872V206.119L44.9283 208.903L44.5576 209.002V209.386V227.851Z" stroke="#FFE1B5"/>
<path d="M93.0955 142.716L103.378 139.962V153V153.652L104.007 153.483L119.962 149.202V159.448L103.748 163.799L103.378 163.899V164.282V168.356V169.008L104.007 168.839L125.691 163.028V173.275L73.7402 187.185V176.938L92.7247 171.86L93.0955 171.761V171.377V167.303V166.652L92.466 166.82L78.6417 170.525V160.278L92.7249 156.504L93.0955 156.405V156.021V142.716Z" stroke="#FFE1B5"/>
<path d="M100.21 236.877V226.63L106.07 225.049L106.44 224.95V224.567V196.825V196.174L105.811 196.342L75.1133 204.56V194.313L106.069 186.026L106.44 185.927V185.543V182.78L116.722 180.027V182.522V183.174L117.352 183.005L123.479 181.356V191.603L117.092 193.321L116.722 193.421V193.804V232.444L100.21 236.877Z" stroke="#FFE1B5"/>
<path d="M98.7959 214.832L87.6738 217.811V207.564L98.7959 204.585V214.832Z" stroke="#FFE1B5"/>
<path d="M38.995 414.826L29.1445 427.32V412.965L52.9804 382.752L53.0878 382.615V382.442V364.636L63.37 361.883V383.923L50.2773 400.522L50.1699 400.658V400.832V446.442L39.8877 449.195V415.135V413.693L38.995 414.826Z" stroke="#FFE1B5"/>
<path d="M90.9954 411.361V411.615L91.2001 411.765L119.042 432.148L119.236 432.29L119.467 432.227L127.926 429.952V440.199L114.763 443.735L80.7132 418.805V404.981V404.329L80.0839 404.498L54.0371 411.475V401.228L80.3426 394.182L80.7132 394.082V393.699V375.68L90.9954 372.926V390.677V391.329L91.6247 391.16L130.796 380.673V382.51L122.704 393.084L91.3661 401.477L90.9954 401.576V401.96V411.361Z" stroke="#FFE1B5"/>
<path d="M65.1288 446.781L65.289 446.738L65.3918 446.608L83.5456 423.595L90.7113 428.846L69.3853 455.887L39.8887 463.798V453.552L65.1288 446.781Z" stroke="#FFE1B5"/>
<path d="M115.144 365.693V365.947L115.348 366.097L119.317 369L111.952 378.331L104.861 373.137V359.609L115.144 356.855V365.693Z" stroke="#FFE1B5"/>
<path d="M109.046 534.794L97.9238 537.773V527.526L109.046 524.547V534.794Z" stroke="#FFE1B5"/>
<path d="M127.597 502.968L133.573 501.357V511.604L127.337 513.284L126.967 513.384V513.767V554.639L110.454 559.071V548.824L116.315 547.244L116.685 547.144V546.761V516.788V516.137L116.055 516.305L80.0801 525.94V515.693L116.314 505.989L116.685 505.89V505.506V502.743L126.967 499.99V502.485V503.137L127.597 502.968Z" stroke="#FFE1B5"/>
<path d="M115.095 487.918V488.57L115.724 488.401L135.152 483.192V493.439L83.5645 507.261V497.014L104.442 491.422L104.813 491.323V490.939V487.429V486.778L104.183 486.946L91.5372 490.326V480.078L104.442 476.63L104.813 476.531V476.147V462.277L115.095 459.524V473.113V473.765L115.724 473.596L128.959 470.054V480.301L115.466 483.912L115.095 484.012V484.395V487.918Z" stroke="#FFE1B5"/>
<path d="M73.4084 501.733L80.8343 506.646L70.8829 520.024L70.784 520.157V520.323V561.495L60.5018 564.248V535.466V533.957L59.6008 535.167L53.3853 543.516L40.2816 547.132V536.874L48.9041 534.468L49.0687 534.422L49.1708 534.285L60.4028 519.205L60.5018 519.072V518.906V499.451V498.796L59.8701 498.968L45.5542 502.88L45.3949 502.923L45.2929 503.053L32.1909 519.722L25.0251 514.471L43.0455 491.536L43.1523 491.4V491.227V477.195L53.4345 474.442V489.823V490.478L54.0661 490.306L60.1334 488.651L60.5018 488.55V488.169V465.812L70.784 463.047V485.085V485.74L71.4158 485.567L83.2195 482.342V492.588L71.1523 495.885L70.784 495.985V496.367V503.751V505.26L71.6852 504.049L73.4084 501.733Z" stroke="#FFE1B5"/>
<path d="M32.9609 276.939L60.5772 269.543V272.577L71.8594 269.556V266.509L79.8949 264.366V267.412L91.1771 264.378V261.345L118.793 253.936V242.654L91.1771 250.062V240.585L79.8949 243.607V253.084L71.8594 255.227V245.763L60.5772 248.784V258.261L32.9609 265.657V276.939Z" fill="#FFE1B5"/>
<path d="M48.8027 278.393V312.766L60.0849 309.745V289.299L91.7001 280.825V301.271L102.982 298.25V263.877L91.7001 266.898V269.543L60.0849 278.017V275.372L48.8027 278.393Z" fill="#FFE1B5"/>
<path d="M82.1614 299.641L88.9182 297.824V286.541L82.1614 288.359V286.153L70.8792 289.174V291.38L63.0192 293.486V304.768L70.8792 302.662V312.39L46.8481 318.834V311.914L35.5659 314.935V321.855L28.6211 323.723V335.005L35.5659 333.137V354.962L46.8481 351.941V330.116L70.8792 323.672V331.445L52.9154 336.296V347.578L99.4231 335.042V323.76L82.1614 328.411V320.651L106.343 314.17V335.995L117.625 332.974V299.867L82.1614 309.369V299.641Z" fill="#FFE1B5"/>
<path d="M52.968 161.963L38.79 165.761V148.8L27.5078 151.821V240.236L38.79 237.215V232.852L52.968 229.054V245.401L64.2502 242.38V157.299L52.968 160.32V161.963ZM38.79 221.583V203.118L49.5582 200.234V188.952L38.79 191.835V177.043L52.968 173.245V217.784L38.79 221.583Z" fill="#FFE1B5"/>
<path d="M119.924 167.39L66.9727 181.568V170.286L86.3279 165.109V161.035L71.8741 164.908V153.626L86.3279 149.753V136.063L97.6101 133.042V146.731L114.195 142.281V153.563L97.6101 158.014V162.088L119.924 156.108V167.39Z" fill="#FFE1B5"/>
<path d="M117.712 185.717V174.435L110.955 176.253V173.106L99.6726 176.128V179.274L68.3457 187.66V198.943L99.6726 190.556V218.298L93.4423 219.978V231.26L110.955 226.559V187.535L117.712 185.717Z" fill="#FFE1B5"/>
<path d="M80.9062 212.193L93.0283 208.946V197.664L80.9062 200.911V212.193Z" fill="#FFE1B5"/>
<path d="M33.124 443.578L44.4062 440.557V394.563L57.6064 377.828V354.963L46.3242 357.984V376.173L22.3809 406.522V422.493L33.124 408.866V443.578Z" fill="#FFE1B5"/>
<path d="M85.2318 405.093V395.692L116.734 387.255L125.033 376.412V373.754L85.2318 384.409V366.007L73.9496 369.028V387.43L47.2734 394.576V405.858L73.9496 398.713V412.79L108.398 438.012L122.162 434.314V423.032L113.074 425.477L85.2318 405.093Z" fill="#FFE1B5"/>
<path d="M58.7356 440.03L33.125 446.9V458.182L63.4114 450.059L85.161 422.48L77.1882 416.638L58.7356 440.03Z" fill="#FFE1B5"/>
<path d="M113.767 362.634L109.38 359.425V349.936L98.0977 352.957V367.122L105.782 372.751L113.767 362.634Z" fill="#FFE1B5"/>
<path d="M91.1484 532.156L103.271 528.909V517.627L91.1484 520.874V532.156Z" fill="#FFE1B5"/>
<path d="M121.191 493.07L109.909 496.091V499.238L73.3047 509.041V520.323L109.909 510.52V540.493L103.679 542.173V553.455L121.191 548.754V507.499L127.798 505.719V494.436L121.191 496.217V493.07Z" fill="#FFE1B5"/>
<path d="M109.319 481.65V478.127L123.184 474.417V463.134L109.319 466.845V452.604L98.0372 455.625V469.879L84.7618 473.426V484.708L98.0372 481.161V484.671L76.7891 490.362V501.644L129.377 487.554V476.272L109.319 481.65Z" fill="#FFE1B5"/>
<path d="M75.2754 500.253L67.0144 494.787L65.0086 497.482V490.099L77.4441 486.701V475.419L65.0086 478.816V456.127L53.7264 459.16V481.9L47.6591 483.555V467.522L36.3769 470.543V484.959L18.0371 508.301L26.0099 514.142L39.4106 497.094L53.7264 493.182V512.638L42.4944 527.718L33.5063 530.226V541.52L47.4084 537.684L53.7264 529.198V558.632L65.0086 555.611V514.054L75.2754 500.253Z" fill="#FFE1B5"/>
<path d="M49.847 53.6324C49.847 52.3366 49.847 51.0408 49.847 49.6847C56.5332 49.6847 63.1329 49.6847 69.8895 49.6847C69.8895 50.9905 69.8895 52.3105 69.8895 53.6324L69.9277 53.6022C67.2637 53.6022 64.5997 53.6022 61.9035 53.6022C61.9035 64.373 61.9035 75.027 61.9035 85.7072C72.634 85.7072 83.3121 85.7072 94.0346 85.7072C94.0346 82.9889 94.0346 80.349 94.0346 77.7091L94.0044 77.7474C95.3022 77.7474 96.6 77.7474 97.9803 77.7474C97.9803 83.1116 97.9803 88.3873 97.9803 93.7415C100.687 93.7415 103.312 93.7415 106.057 93.7415C106.057 89.8119 106.057 85.8521 106.057 81.8078C107.433 81.8078 108.691 81.8078 110.069 81.8078C110.069 80.4456 110.069 79.1619 110.069 77.7957C112.783 77.7957 115.381 77.7957 118.099 77.7957C118.099 76.4355 118.099 75.1498 118.099 73.7473C120.838 73.7473 123.461 73.7473 126.164 73.7473C126.164 72.3711 126.164 71.1135 126.164 69.7352C128.868 69.7352 131.49 69.7352 134.194 69.7352C134.194 68.3589 134.194 67.1014 134.194 65.7694C135.53 65.7694 136.784 65.7694 138.114 65.7694C138.114 72.355 138.114 78.9647 138.114 85.7374C136.828 85.7374 135.504 85.7374 134.182 85.7374L134.212 85.7756C134.212 81.7716 134.212 77.7695 134.212 73.7433C132.81 73.7433 131.524 73.7433 130.121 73.7433C130.121 75.0854 130.121 76.3691 130.121 77.7313C127.405 77.7313 124.81 77.7313 122.093 77.7313C122.093 79.0955 122.093 80.3792 122.093 81.7414C119.377 81.7414 116.781 81.7414 114.065 81.7414C114.065 83.1056 114.065 84.3873 114.065 85.7877C112.665 85.7877 111.379 85.7877 110.021 85.7877C110.021 89.8421 110.021 93.7777 110.021 97.8301C105.978 97.8301 102.019 97.8301 98.089 97.8301C98.089 99.2365 98.089 100.52 98.089 101.848C103.485 101.848 108.803 101.848 114.121 101.848L114.083 101.818C114.083 103.114 114.083 104.41 114.083 105.828C105.994 105.828 97.9884 105.828 89.9843 105.828L90.0144 105.866C90.0144 103.206 90.0144 100.544 90.0144 97.8039C91.437 97.8039 92.6966 97.8039 93.9823 97.8039C93.9823 95.0956 93.9823 92.4719 93.9823 89.7354C81.9318 89.7354 69.9418 89.7354 57.837 89.7354C57.837 77.6307 57.837 65.6406 57.837 53.6043C55.0845 53.6043 52.4426 53.6043 49.8027 53.6043L49.847 53.6324Z" fill="#FFE1B5"/>
<path d="M25.7315 65.6495C24.4337 65.6495 23.1359 65.6495 21.7536 65.6495C21.7536 62.9634 21.7536 60.3658 21.7536 57.6495C20.3914 57.6495 19.1077 57.6495 17.7656 57.6495C17.7656 45.5628 17.7656 33.5949 17.7656 21.5646C20.3713 21.5646 22.9629 21.5646 25.6772 21.5646C25.6772 22.8483 25.6772 24.132 25.6772 25.4962C27.0534 25.4962 28.313 25.4962 29.6893 25.4962C29.6893 28.2005 29.6893 30.8222 29.6893 33.5265C31.0656 33.5265 32.3231 33.5265 33.7014 33.5265C33.7014 37.5688 33.7014 41.5306 33.7014 45.5749C35.0757 45.5749 36.3352 45.5749 37.7135 45.5749C37.7135 48.2771 37.7135 50.9009 37.7135 53.6333C41.8363 53.6333 45.8424 53.6333 49.8464 53.6333L49.8082 53.6031C49.8082 54.9211 49.8082 56.241 49.8082 57.6635C47.0376 57.6635 44.4239 57.6635 41.7981 57.6635C41.7981 59.07 41.7981 60.3678 41.7981 61.6636C39.1119 61.6555 36.4238 61.6455 33.7376 61.6374L33.7678 61.6676C33.7678 57.6656 33.7678 53.6615 33.7678 49.5407C32.3714 49.5407 31.0877 49.5407 29.7275 49.5407C29.7275 45.4864 29.7275 41.5507 29.7275 37.4983C28.3653 37.4983 27.0816 37.4983 25.7194 37.4983C25.7194 34.784 25.7194 32.1864 25.7194 29.5707C24.325 29.5707 23.0172 29.5707 21.7536 29.5707C21.7536 37.6372 21.7536 45.6151 21.7536 53.6776C23.0936 53.6776 24.3512 53.6776 25.6993 53.6776C25.6993 57.736 25.6993 61.7119 25.6993 65.6858L25.7315 65.6495Z" fill="#FFE1B5"/>
<path d="M86.0089 37.5623C86.0089 36.2645 86.0089 34.9667 86.0089 33.5864C87.353 33.5864 88.6105 33.5864 89.9888 33.5864C89.9888 32.2262 89.9888 30.9405 89.9888 29.5783C92.7031 29.5783 95.2987 29.5783 98.015 29.5783C98.015 28.2181 98.015 26.9344 98.015 25.5863C100.725 25.5863 103.317 25.5863 105.981 25.5863C105.981 32.186 105.981 38.7937 105.981 45.5604C104.689 45.5604 103.367 45.5604 102.045 45.5604L102.075 45.5986C102.075 41.5985 102.075 37.6005 102.075 33.5904C99.3249 33.5904 96.681 33.5904 93.9546 33.5904C93.9546 34.9325 93.9546 36.19 93.9546 37.5321C91.2403 37.5321 88.6065 37.5321 85.9727 37.5321L86.0089 37.5623Z" fill="#FFE1B5"/>
<path d="M98.015 53.601C98.015 56.2328 98.015 58.8666 98.015 61.6151C96.6608 61.6151 95.3791 61.6151 94.019 61.6151C94.019 62.9854 94.019 64.2429 94.019 65.6152C92.6608 65.6152 91.3791 65.6152 89.9787 65.6152C89.9787 67.0538 89.9787 68.3778 89.9787 69.7017L90.0169 69.6715C88.699 69.6715 87.3811 69.6715 85.9746 69.6715C85.9746 66.8928 85.9746 64.2671 85.9746 61.6413C87.2966 61.6413 88.6185 61.6413 90.0551 61.6413C90.0551 60.2751 90.0551 58.9934 90.0551 57.601C91.4515 57.601 92.7312 57.601 94.0874 57.601C94.0874 56.2287 94.0874 54.9732 94.0874 53.6311C95.4616 53.6311 96.7574 53.6311 98.0532 53.6311L98.015 53.601Z" fill="#FFE1B5"/>
<path d="M69.8854 121.906C69.8854 123.202 69.8854 124.498 69.8854 125.854C63.1992 125.854 56.5995 125.854 49.8429 125.854C49.8429 124.548 49.8429 123.228 49.8429 121.906L49.8047 121.937C56.511 121.937 63.2193 121.937 69.9256 121.937L69.8854 121.906Z" fill="#FFE1B5"/>
<path d="M130.155 93.7798C130.155 96.4136 130.155 99.0454 130.155 101.816C124.746 101.816 119.414 101.816 114.082 101.816L114.12 101.846C114.12 100.526 114.12 99.2044 114.12 97.7778C118.237 97.7778 122.191 97.7778 126.223 97.7778C126.223 96.4116 126.223 95.154 126.223 93.81C127.599 93.81 128.895 93.81 130.191 93.81L130.155 93.7798Z" fill="#FFE1B5"/>
<path d="M25.7309 97.7918C24.4351 97.7918 23.1394 97.7918 21.7832 97.7918C21.7832 91.1056 21.7832 84.5059 21.7832 77.7493C23.0891 77.7493 24.409 77.7493 25.7309 77.7493L25.7007 77.7111C25.7007 84.4174 25.7007 91.1257 25.7007 97.832L25.7309 97.7918Z" fill="#FFE1B5"/>
<path d="M25.7294 77.7473C25.7294 73.7131 25.7294 69.6808 25.7294 65.6466L25.6992 65.6848C27.0212 65.6848 28.3411 65.6848 29.7737 65.6848C29.7737 64.3045 29.7737 63.0248 29.7737 61.6667C31.1782 61.6667 32.4719 61.6667 33.7657 61.6667L33.7355 61.6365C33.7355 64.2924 33.7355 66.9504 33.7355 69.6869C32.325 69.6869 31.0675 69.6869 29.6993 69.6869C29.6993 72.3831 29.6993 75.0028 29.6993 77.7091C28.2908 77.7091 26.995 77.7091 25.6992 77.7091L25.7294 77.7473Z" fill="#FFE1B5"/>
<path d="M69.8867 53.6334C71.1845 53.6334 72.4843 53.6334 73.8968 53.6334C73.8968 52.3296 73.8968 51.0499 73.8968 49.6233C75.3254 49.6233 76.6433 49.6233 77.9613 49.6233L77.9311 49.5851C77.9391 52.2712 77.9492 54.9594 77.9572 57.6455C75.3073 57.6455 72.6574 57.6455 69.927 57.6455C69.927 56.1888 69.927 54.895 69.927 53.6032L69.8867 53.6334Z" fill="#FFE1B5"/>
<path d="M77.9696 49.623C77.9696 46.9932 77.9696 44.3654 77.9696 41.5867C79.3499 41.5867 80.6699 41.5867 81.9878 41.5867L81.9576 41.5485C81.9576 44.2004 81.9576 46.8503 81.9576 49.5848C80.527 49.5848 79.2332 49.5848 77.9395 49.5848L77.9696 49.623Z" fill="#FFE1B5"/>
<path d="M102.042 45.5575C102.042 48.1873 102.042 50.8191 102.042 53.6018C100.655 53.6018 99.3356 53.6018 98.0156 53.6018L98.0539 53.632C98.0539 50.9801 98.0539 48.3302 98.0539 45.5957C99.4845 45.5957 100.778 45.5957 102.072 45.5957L102.042 45.5575Z" fill="#FFE1B5"/>
<path d="M134.171 85.7391C134.171 88.3689 134.171 91.0008 134.171 93.7835C132.784 93.7835 131.464 93.7835 130.145 93.7835L130.183 93.8137C130.183 91.1617 130.183 88.5118 130.183 85.7774C131.613 85.7774 132.907 85.7774 134.201 85.7774L134.171 85.7391Z" fill="#FFE1B5"/>
<path d="M29.7476 105.829C28.4538 105.829 27.16 105.829 25.7294 105.829C25.7294 103.1 25.7294 100.446 25.7294 97.7924L25.6992 97.8306C27.0473 97.8225 28.3954 97.8145 29.7435 97.8064C29.7355 100.493 29.7254 103.181 29.7174 105.867L29.7476 105.829Z" fill="#FFE1B5"/>
<path d="M33.7651 113.864C32.4714 113.864 31.1776 113.864 29.747 113.864C29.747 111.136 29.747 108.482 29.747 105.828L29.7168 105.866C31.0649 105.858 32.413 105.85 33.7611 105.842C33.7531 108.528 33.743 111.216 33.7349 113.902L33.7651 113.864Z" fill="#FFE1B5"/>
<path d="M89.9849 105.828C89.9849 108.458 89.9849 111.085 89.9849 113.864C88.6047 113.864 87.2847 113.864 85.9668 113.864L85.997 113.902C85.997 111.25 85.997 108.601 85.997 105.866C87.4276 105.866 88.7214 105.866 90.0151 105.866L89.9849 105.828Z" fill="#FFE1B5"/>
<path d="M89.9785 69.7054C91.2743 69.7054 92.5681 69.7054 94.0047 69.7054C94.0047 72.4398 94.0047 75.0937 94.0047 77.7497L94.0349 77.7115C92.717 77.7115 91.3991 77.7115 90.0167 77.7115C90.0167 74.9308 90.0167 72.303 90.0167 69.6752L89.9785 69.7054Z" fill="#FFE1B5"/>
<path d="M41.797 117.881C39.1692 117.881 36.5394 117.881 33.7606 117.881C33.7606 116.501 33.7606 115.183 33.7606 113.863L33.7305 113.902C36.4186 113.893 39.1048 113.885 41.7929 113.877C41.7849 115.225 41.7748 116.572 41.7668 117.92L41.797 117.881Z" fill="#FFE1B5"/>
<path d="M85.9758 113.863C85.9758 115.157 85.9758 116.453 85.9758 117.881C83.2453 117.881 80.5934 117.881 77.9395 117.881L77.9696 117.92C77.9616 116.572 77.9515 115.225 77.9435 113.877C80.6316 113.885 83.3178 113.893 86.0059 113.902L85.9758 113.863Z" fill="#FFE1B5"/>
<path d="M69.735 113.695C69.735 115.031 69.735 116.368 69.735 117.843C63.0524 117.843 56.5619 117.843 50.0664 117.843L50.1403 117.883C50.1206 116.491 50.0959 115.101 50.0762 113.709C56.6554 113.718 63.2297 113.726 69.8089 113.734L69.735 113.695Z" fill="#FFE1B5"/>
<path d="M49.8519 121.909C47.2221 121.909 44.5903 121.909 41.8075 121.909C41.8075 120.523 41.8075 119.203 41.8075 117.883L41.7773 117.921C44.4635 117.913 47.1516 117.903 49.8378 117.895C49.8297 119.243 49.8217 120.591 49.8136 121.939L49.8519 121.909Z" fill="#FFE1B5"/>
<path d="M77.9311 117.883C77.9311 119.179 77.9311 120.472 77.9311 121.909C75.1966 121.909 72.5427 121.909 69.8867 121.909L69.9249 121.939C69.9169 120.591 69.9089 119.243 69.9008 117.895C72.587 117.903 75.2751 117.913 77.9613 117.921L77.9311 117.883Z" fill="#FFE1B5"/>
<path d="M81.9774 41.5871C81.9774 40.2934 81.9774 39.0016 81.9774 37.5609C83.3678 37.5609 84.6857 37.5609 86.0036 37.5609L85.9654 37.5308C85.9654 38.8467 85.9654 40.1606 85.9654 41.5489C84.5288 41.5489 83.239 41.5489 81.9473 41.5489L81.9774 41.5871Z" fill="#FFE1B5"/>
<path d="M33.7551 97.8255C32.409 97.8255 31.0629 97.8255 29.7168 97.8255C29.7168 92.5236 29.7168 87.2218 29.7168 81.7328C31.1172 81.7328 32.4371 81.7328 33.7551 81.7328C33.7551 87.097 33.7551 92.4613 33.7551 97.8255Z" fill="#FFE1B5"/>
<path d="M33.7305 81.7526C33.7305 79.1268 33.7305 76.501 33.7305 73.6962C35.1369 73.6962 36.4528 73.6962 37.7687 73.6962C37.7687 76.3219 37.7687 78.9477 37.7687 81.7526C36.3623 81.7526 35.0464 81.7526 33.7305 81.7526Z" fill="#FFE1B5"/>
<path d="M37.7687 105.862C36.4226 105.862 35.0766 105.862 33.7305 105.862C33.7305 103.175 33.7305 100.491 33.7305 97.8052C35.0222 97.8052 36.314 97.8052 37.7687 97.8052C37.7687 100.562 37.7687 103.212 37.7687 105.862Z" fill="#FFE1B5"/>
<path d="M78.005 109.897C78.005 107.267 78.005 104.637 78.005 101.863C79.343 101.863 80.6609 101.863 81.9789 101.863L81.9447 101.828C81.9447 104.464 81.9447 107.098 81.9447 109.867C80.5603 109.867 79.2646 109.867 77.9708 109.867C77.9688 109.865 78.005 109.897 78.005 109.897Z" fill="#FFE1B5"/>
<path d="M77.9549 113.898C75.2687 113.898 72.5846 113.898 69.8984 113.898C69.8984 112.602 69.8984 111.308 69.8984 109.898C72.6751 109.898 75.3351 109.898 77.9951 109.898C77.9951 109.898 77.9589 109.866 77.9609 109.866C77.9589 111.21 77.9569 112.554 77.9549 113.898Z" fill="#FFE1B5"/>
<path d="M37.7656 73.7187C37.7656 71.0929 37.7656 68.4671 37.7656 65.6622C39.1721 65.6622 40.488 65.6622 41.8039 65.6622C41.8039 68.288 41.8039 70.9138 41.8039 73.7187C40.3974 73.7187 39.0815 73.7187 37.7656 73.7187Z" fill="#FFE1B5"/>
<path d="M49.8396 113.899C47.1535 113.899 44.4693 113.899 41.7832 113.899C41.7832 112.553 41.7832 111.207 41.7832 109.861C44.409 109.861 47.0348 109.861 49.8396 109.861C49.8396 111.265 49.8396 112.583 49.8396 113.899Z" fill="#FFE1B5"/>
<path d="M41.7832 65.6839C41.7832 64.3378 41.7832 62.9917 41.7832 61.6456C44.413 61.6456 47.0428 61.6456 49.739 61.6456C49.739 63.0018 49.739 64.2533 49.739 65.6839C47.0911 65.6839 44.4372 65.6839 41.7832 65.6839Z" fill="#FFE1B5"/>
<path d="M81.9776 101.863C81.9776 100.565 81.9776 99.267 81.9776 97.9048C83.3177 97.9048 84.5712 97.9048 85.8932 97.9048C85.8932 99.1543 85.8932 100.406 85.8932 101.828C84.5873 101.828 83.2654 101.828 81.9434 101.828C81.9414 101.828 81.9776 101.863 81.9776 101.863Z" fill="#FFE1B5"/>
<path d="M41.8039 109.878C40.5141 109.878 39.2264 109.878 37.7656 109.878C37.7656 108.465 37.7656 107.153 37.7656 105.84C39.0554 105.84 40.3431 105.84 41.8039 105.84C41.8039 107.25 41.8039 108.564 41.8039 109.878Z" fill="#FFE1B5"/>
<path d="M77.9414 57.6256C80.5672 57.6256 83.193 57.6256 85.9978 57.6256C85.9978 59.0321 85.9978 60.348 85.9978 61.6639C83.372 61.6639 80.7463 61.6639 77.9414 61.6639C77.9414 60.2574 77.9414 58.9415 77.9414 57.6256Z" fill="#FFE1B5"/>
</svg>
