<svg width="183" height="56" viewBox="0 0 183 56" fill="none" xmlns="http://www.w3.org/2000/svg">
<path d="M29.9443 37.2067C28.2936 37.7709 26.6591 38.3295 24.9911 38.8997C25.3515 39.9157 25.699 40.8956 26.0588 41.9101C23.5649 42.7626 21.1069 43.6027 18.6129 44.4551C18.9728 45.4696 19.3203 46.4495 19.6834 47.4731C18.0153 48.0432 16.3833 48.601 14.7203 49.1695C15.0795 50.1825 15.4234 51.1519 15.7821 52.1634C14.9438 52.4499 14.1364 52.7259 13.3167 53.006C13.6787 54.0266 14.0262 55.0065 14.3786 56C16.8564 55.1531 19.3144 54.313 21.8083 53.4605C21.4544 52.4626 21.1068 51.4826 20.7459 50.4651C21.6029 50.1722 22.4239 49.8916 23.2461 49.6106C24.0708 49.3287 24.8943 49.0472 25.719 48.7654C26.5387 48.4852 27.3584 48.205 28.2067 47.9151C27.8437 46.8915 27.4999 45.9221 27.1433 44.9166C27.8562 44.6729 28.5393 44.4395 29.2236 44.2056C29.9092 43.9712 30.5936 43.7373 31.2792 43.503C31.9648 43.2687 32.6491 43.0348 33.3347 42.8004C34.0302 42.5627 34.7245 42.3254 35.4201 42.0877C36.1057 41.8533 36.7905 41.6209 37.4756 41.3851C38.1557 41.151 38.84 40.9289 39.5421 40.6703C39.1796 39.6483 38.8348 38.6759 38.4781 37.6704C40.1405 37.0803 41.7915 36.5447 43.4458 35.9556C43.3129 35.5808 43.1981 35.2572 43.0833 34.9335C42.9637 34.5963 42.8379 34.2613 42.7258 33.9216C42.6201 33.5999 42.4624 33.2926 42.4146 32.9343C42.7562 32.8175 43.0828 32.7059 43.4095 32.5943C43.7374 32.4822 44.0653 32.3701 44.3932 32.258C44.7211 32.146 45.049 32.0339 45.3769 31.9218C45.7047 31.8098 46.0332 31.6992 46.3605 31.5856C46.6824 31.4722 47.0119 31.3765 47.3174 31.2484C46.956 30.2294 46.6122 29.26 46.2577 28.2605C45.9708 28.3586 45.7037 28.4499 45.4379 28.5407C45.1597 28.6358 44.8826 28.7339 44.6028 28.8245C44.3379 28.91 44.0829 29.0275 43.7782 29.0793C43.4205 28.0708 43.0762 27.0999 42.7185 26.0914C41.869 26.3818 41.0467 26.6628 40.2245 26.9438C39.3998 27.2257 38.5764 27.5071 37.7517 27.789C36.927 28.0709 36.1041 28.3538 35.2788 28.6342C34.4586 28.9129 33.6413 29.204 32.7958 29.4744C32.6047 28.9356 32.4314 28.4429 32.255 27.9496C32.0808 27.4624 31.9054 26.9755 31.723 26.4691C31.4125 26.5752 31.1454 26.6665 30.8784 26.7578C30.6002 26.8528 30.3246 26.9555 30.0432 27.0415C29.778 27.1221 29.5296 27.266 29.2259 27.2736C28.8789 26.2834 28.5244 25.3193 28.1854 24.3163C28.5518 24.191 28.8784 24.0794 29.2051 23.9677C29.533 23.8557 29.8609 23.7436 30.1888 23.6315C30.5266 23.5161 30.8644 23.4006 31.2023 23.2851C31.5302 23.1731 31.858 23.061 32.1859 22.9489C32.5138 22.8368 32.8417 22.7248 33.1696 22.6127C33.4975 22.5006 33.8254 22.3886 34.1533 22.2765C34.4812 22.1644 34.8091 22.0523 35.137 21.9403C35.4748 21.8248 35.8126 21.7093 36.1505 21.5939C36.4783 21.4818 36.8068 21.3712 37.1341 21.2577C37.4565 21.1458 37.7773 21.0294 38.1222 20.9064C37.7597 19.8844 37.4154 18.9135 37.0566 17.902C38.7147 17.3352 40.348 16.777 42.016 16.2069C41.2996 14.1868 40.5975 12.2075 39.8837 10.1949C40.2452 10.0714 40.5718 9.95976 40.8985 9.84812C41.2264 9.73605 41.5542 9.62397 41.8821 9.5119C42.21 9.39983 42.5379 9.28776 42.8658 9.17569C43.1937 9.06362 43.5227 8.95456 43.8495 8.83948C44.1713 8.72609 44.5014 8.63185 44.8065 8.49886C44.6934 7.98735 42.8215 2.76065 42.6647 2.50707C41.8686 2.77918 41.0687 3.05257 40.2341 3.33784C40.5886 4.33732 40.9361 5.31723 41.2975 6.33628C39.6295 6.9064 37.9963 7.46464 36.3245 8.03603C36.6859 9.05508 37.0335 10.035 37.3922 11.0465C36.8097 11.2456 36.2657 11.4316 35.7217 11.6175C35.1752 11.8043 34.6282 11.9896 34.0835 12.1774C33.5425 12.364 32.9971 12.542 32.4313 12.7489C32.7932 13.7694 33.1371 14.7388 33.4942 15.7458C29.3484 17.1629 25.2323 18.5697 21.0815 19.9884C21.4429 21.0075 21.7899 21.9859 22.1498 23.0004C21.8095 23.1167 21.5027 23.2216 21.1971 23.326C20.8891 23.4313 20.5811 23.5366 20.2731 23.6418C19.9651 23.7471 19.657 23.8524 19.349 23.9577C19.041 24.063 18.733 24.1682 18.425 24.2735C18.107 24.3822 17.789 24.4909 17.4711 24.5995C17.1631 24.7048 16.8551 24.8101 16.547 24.9154C16.239 25.0207 15.9299 25.1229 15.6235 25.2327C15.3215 25.3393 15.0103 25.4237 14.6973 25.5662C15.0582 26.5837 15.402 27.5531 15.7629 28.5706C14.9295 28.8555 14.1222 29.1314 13.305 29.4107C13.6659 30.4283 14.0092 31.3961 14.3663 32.4032C16.0169 31.839 17.649 31.2812 19.3207 30.7098C19.6816 31.7273 20.0292 32.7072 20.3901 33.7248C22.8877 32.8711 25.3457 32.031 27.8161 31.1866C28.5252 33.2058 29.2278 35.1867 29.9443 37.2067Z" fill="#FFE1B5"/>
<path d="M71.7763 35.9623C70.1257 36.5265 68.4912 37.0852 66.8231 37.6553C67.1835 38.6713 67.531 39.6512 67.8909 40.6658C65.3969 41.5182 62.939 42.3583 60.445 43.2107C60.8048 44.2252 61.1524 45.2052 61.5154 46.2287C59.8474 46.7988 58.2153 47.3567 56.5523 47.9251C56.9116 48.9381 57.2554 49.9075 57.6141 50.919C56.7758 51.2055 55.9685 51.4815 55.1487 51.7617C55.5107 52.7822 55.8583 53.7621 56.2106 54.7556C58.6884 53.9087 61.1464 53.0686 63.6404 52.2162C63.2864 51.2182 62.9389 50.2383 62.578 49.2207C63.4349 48.9278 64.2559 48.6472 65.0781 48.3662C65.9028 48.0843 66.7263 47.8028 67.551 47.521C68.3707 47.2408 69.1905 46.9606 70.0388 46.6707C69.6757 45.6471 69.3319 44.6777 68.9753 43.6722C69.6882 43.4286 70.3713 43.1951 71.0557 42.9612C71.7413 42.7268 72.4256 42.4929 73.1112 42.2586C73.7968 42.0243 74.4812 41.7904 75.1667 41.556C75.8623 41.3183 76.5566 41.081 77.2521 40.8433C77.9377 40.609 78.6226 40.3765 79.3076 40.1407C79.9877 39.9066 80.6721 39.6845 81.3742 39.4259C81.0117 38.4039 80.6668 37.4315 80.3102 36.426C81.9725 35.8359 83.6235 35.3003 85.2779 34.7112C85.1449 34.3364 85.0301 34.0128 84.9154 33.6891C84.7958 33.352 84.67 33.0169 84.5578 32.6772C84.4521 32.3555 84.2944 32.0483 84.2467 31.6899C84.5882 31.5732 84.9149 31.4615 85.2415 31.3499C85.5694 31.2378 85.8973 31.1257 86.2252 31.0137C86.5531 30.9016 86.881 30.7895 87.2089 30.6774C87.5368 30.5654 87.8652 30.4548 88.1926 30.3412C88.5144 30.2278 88.8439 30.1321 89.1494 30.004C88.788 28.985 88.4442 28.0156 88.0897 27.0161C87.8028 27.1142 87.5358 27.2055 87.27 27.2963C86.9918 27.3914 86.7146 27.4895 86.4348 27.5801C86.1699 27.6656 85.915 27.7831 85.6103 27.8349C85.2526 26.8264 84.9082 25.8555 84.5505 24.847C83.701 25.1374 82.8788 25.4184 82.0566 25.6994C81.2319 25.9813 80.4084 26.2627 79.5837 26.5446C78.759 26.8265 77.9361 27.1095 77.1108 27.3898C76.2906 27.6685 75.4733 27.9596 74.6279 28.2301C74.4367 27.6912 74.2634 27.1985 74.0871 26.7052C73.9128 26.218 73.7374 25.7311 73.555 25.2247C73.2445 25.3308 72.9775 25.4221 72.7104 25.5134C72.4322 25.6085 72.1567 25.7111 71.8753 25.7971C71.61 25.8777 71.3616 26.0216 71.058 26.0292C70.7109 25.039 70.3565 24.075 70.0174 23.0719C70.3838 22.9467 70.7105 22.835 71.0371 22.7234C71.365 22.6113 71.6929 22.4992 72.0208 22.3871C72.3586 22.2717 72.6965 22.1562 73.0343 22.0407C73.3622 21.9287 73.6901 21.8166 74.018 21.7045C74.3459 21.5925 74.6738 21.4804 75.0016 21.3683C75.3295 21.2562 75.6574 21.1442 75.9853 21.0321C76.3132 20.92 76.6411 20.808 76.969 20.6959C77.3068 20.5804 77.6447 20.465 77.9825 20.3495C78.3104 20.2374 78.6388 20.1268 78.9662 20.0133C79.2886 19.9014 79.6093 19.785 79.9543 19.662C79.5918 18.64 79.2474 17.6691 78.8887 16.6576C80.5468 16.0909 82.18 15.5326 83.848 14.9625C83.1316 12.9425 82.4295 10.9631 81.7158 8.95056C82.0772 8.82703 82.4038 8.71538 82.7305 8.60373C83.0584 8.49166 83.3863 8.37959 83.7142 8.26752C84.0421 8.15545 84.37 8.04338 84.6978 7.9313C85.0257 7.81923 85.3547 7.71017 85.6815 7.59509C86.0034 7.48171 86.3334 7.38747 86.6386 7.25448C86.5254 6.74296 84.6535 1.51626 84.4967 1.26268C83.7006 1.5348 82.9007 1.80818 82.0661 2.09345C82.4206 3.09294 82.7681 4.07285 83.1296 5.0919C81.4615 5.66202 79.8283 6.22025 78.1565 6.79165C78.518 7.8107 78.8655 8.79061 79.2243 9.80213C78.6418 10.0012 78.0978 10.1872 77.5538 10.3731C77.0073 10.5599 76.4603 10.7452 75.9155 10.933C75.3746 11.1196 74.8291 11.2976 74.2633 11.5045C74.6253 12.5251 74.9691 13.4944 75.3262 14.5014C71.1804 15.9185 67.0644 17.3253 62.9135 18.744C63.275 19.7631 63.622 20.7415 63.9818 21.756C63.6415 21.8723 63.3347 21.9772 63.0292 22.0816C62.7212 22.1869 62.4131 22.2922 62.1051 22.3975C61.7971 22.5027 61.4891 22.608 61.1811 22.7133C60.873 22.8186 60.565 22.9238 60.257 23.0291C59.939 23.1378 59.6211 23.2465 59.3031 23.3552C58.9951 23.4604 58.6871 23.5657 58.3791 23.671C58.071 23.7763 57.762 23.8785 57.4555 23.9883C57.1536 24.0949 56.8423 24.1794 56.5294 24.3218C56.8903 25.3393 57.2341 26.3087 57.595 27.3262C56.7616 27.6111 55.9543 27.887 55.137 28.1663C55.4979 29.1839 55.8412 30.1518 56.1983 31.1588C57.849 30.5946 59.481 30.0368 61.1527 29.4654C61.5136 30.4829 61.8612 31.4628 62.2221 32.4804C64.7198 31.6267 67.1777 30.7866 69.6481 29.9422C70.3573 31.9614 71.0598 33.9423 71.7763 35.9623Z" fill="#FFE1B5"/>
<path d="M113.612 37.2067C111.962 37.7709 110.327 38.3295 108.659 38.8997C109.019 39.9157 109.367 40.8956 109.727 41.9101C107.233 42.7626 104.775 43.6027 102.281 44.4551C102.641 45.4696 102.988 46.4495 103.351 47.4731C101.683 48.0432 100.051 48.601 98.3882 49.1695C98.7475 50.1825 99.0913 51.1519 99.4501 52.1634C98.6117 52.4499 97.8044 52.7259 96.9847 53.006C97.3466 54.0266 97.6942 55.0065 98.0465 56C100.524 55.1531 102.982 54.313 105.476 53.4605C105.122 52.4626 104.775 51.4826 104.414 50.4651C105.271 50.1722 106.092 49.8916 106.914 49.6106C107.739 49.3287 108.562 49.0472 109.387 48.7654C110.207 48.4852 111.026 48.205 111.875 47.9151C111.512 46.8915 111.168 45.9221 110.811 44.9166C111.524 44.6729 112.207 44.4395 112.892 44.2056C113.577 43.9712 114.262 43.7373 114.947 43.503C115.633 43.2687 116.317 43.0348 117.003 42.8004C117.698 42.5627 118.392 42.3254 119.088 42.0877C119.774 41.8533 120.459 41.6209 121.144 41.3851C121.824 41.151 122.508 40.9289 123.21 40.6703C122.848 39.6483 122.503 38.6759 122.146 37.6704C123.808 37.0803 125.459 36.5447 127.114 35.9556C126.981 35.5808 126.866 35.2572 126.751 34.9335C126.632 34.5963 126.506 34.2613 126.394 33.9216C126.288 33.5999 126.13 33.2926 126.083 32.9343C126.424 32.8175 126.751 32.7059 127.077 32.5943C127.405 32.4822 127.733 32.3701 128.061 32.258C128.389 32.146 128.717 32.0339 129.045 31.9218C129.373 31.8098 129.701 31.6992 130.028 31.5856C130.35 31.4722 130.68 31.3765 130.985 31.2484C130.624 30.2294 130.28 29.26 129.926 28.2605C129.639 28.3586 129.372 28.4499 129.106 28.5407C128.828 28.6358 128.551 28.7339 128.271 28.8245C128.006 28.91 127.751 29.0275 127.446 29.0793C127.089 28.0708 126.744 27.0999 126.386 26.0914C125.537 26.3818 124.715 26.6628 123.892 26.9438C123.068 27.2257 122.244 27.5071 121.42 27.789C120.595 28.0709 119.772 28.3538 118.947 28.6342C118.127 28.9129 117.309 29.204 116.464 29.4744C116.273 28.9356 116.099 28.4429 115.923 27.9496C115.749 27.4624 115.573 26.9755 115.391 26.4691C115.08 26.5752 114.813 26.6665 114.546 26.7578C114.268 26.8528 113.993 26.9555 113.711 27.0415C113.446 27.1221 113.198 27.266 112.894 27.2736C112.547 26.2834 112.192 25.3193 111.853 24.3163C112.22 24.191 112.546 24.0794 112.873 23.9677C113.201 23.8557 113.529 23.7436 113.857 23.6315C114.195 23.5161 114.532 23.4006 114.87 23.2851C115.198 23.1731 115.526 23.061 115.854 22.9489C116.182 22.8368 116.51 22.7248 116.838 22.6127C117.165 22.5006 117.493 22.3886 117.821 22.2765C118.149 22.1644 118.477 22.0523 118.805 21.9403C119.143 21.8248 119.481 21.7093 119.818 21.5939C120.146 21.4818 120.475 21.3712 120.802 21.2577C121.124 21.1458 121.445 21.0294 121.79 20.9064C121.428 19.8844 121.083 18.9135 120.725 17.902C122.383 17.3352 124.016 16.777 125.684 16.2069C124.968 14.1868 124.265 12.2075 123.552 10.1949C123.913 10.0714 124.24 9.95976 124.566 9.84812C124.894 9.73605 125.222 9.62397 125.55 9.5119C125.878 9.39983 126.206 9.28776 126.534 9.17569C126.862 9.06362 127.191 8.95456 127.517 8.83948C127.839 8.72609 128.169 8.63185 128.475 8.49886C128.361 7.98735 126.489 2.76065 126.333 2.50707C125.537 2.77918 124.737 3.05257 123.902 3.33784C124.257 4.33732 124.604 5.31723 124.966 6.33628C123.297 6.9064 121.664 7.46464 119.992 8.03603C120.354 9.05508 120.701 10.035 121.06 11.0465C120.478 11.2456 119.934 11.4316 119.39 11.6175C118.843 11.8043 118.296 11.9896 117.751 12.1774C117.21 12.364 116.665 12.542 116.099 12.7489C116.461 13.7694 116.805 14.7388 117.162 15.7458C113.016 17.1629 108.9 18.5697 104.749 19.9884C105.111 21.0075 105.458 21.9859 105.818 23.0004C105.477 23.1167 105.171 23.2216 104.865 23.326C104.557 23.4313 104.249 23.5366 103.941 23.6418C103.633 23.7471 103.325 23.8524 103.017 23.9577C102.709 24.063 102.401 24.1682 102.093 24.2735C101.775 24.3822 101.457 24.4909 101.139 24.5995C100.831 24.7048 100.523 24.8101 100.215 24.9154C99.907 25.0207 99.5979 25.1229 99.2915 25.2327C98.9895 25.3393 98.6783 25.4237 98.3653 25.5662C98.7262 26.5837 99.07 27.5531 99.4309 28.5706C98.5975 28.8555 97.7902 29.1314 96.9729 29.4107C97.3338 30.4283 97.6771 31.3961 98.0343 32.4032C99.6849 31.839 101.317 31.2812 102.989 30.7098C103.35 31.7273 103.697 32.7072 104.058 33.7248C106.556 32.8711 109.014 32.031 111.484 31.1866C112.193 33.2058 112.896 35.1867 113.612 37.2067Z" fill="#FFE1B5"/>
<path d="M155.444 34.7179C153.794 35.2821 152.159 35.8408 150.491 36.4109C150.851 37.4269 151.199 38.4068 151.559 39.4214C149.065 40.2738 146.607 41.1139 144.113 41.9663C144.473 42.9809 144.82 43.9608 145.183 44.9843C143.515 45.5545 141.883 46.1123 140.22 46.6807C140.58 47.6937 140.923 48.6631 141.282 49.6746C140.444 49.9612 139.636 50.2371 138.817 50.5173C139.179 51.5378 139.526 52.5177 139.879 53.5112C142.356 52.6643 144.814 51.8242 147.308 50.9718C146.954 49.9738 146.607 48.9939 146.246 47.9763C147.103 47.6834 147.924 47.4028 148.746 47.1218C149.571 46.8399 150.394 46.5585 151.219 46.2766C152.039 45.9964 152.858 45.7162 153.707 45.4263C153.344 44.4027 153 43.4334 152.643 42.4278C153.356 42.1842 154.039 41.9507 154.724 41.7168C155.409 41.4825 156.094 41.2486 156.779 41.0142C157.465 40.7799 158.149 40.546 158.835 40.3117C159.53 40.0739 160.225 39.8366 160.92 39.5989C161.606 39.3646 162.291 39.1322 162.976 38.8963C163.656 38.6622 164.34 38.4401 165.042 38.1816C164.68 37.1595 164.335 36.1871 163.978 35.1816C165.64 34.5915 167.291 34.0559 168.946 33.4668C168.813 33.092 168.698 32.7684 168.583 32.4448C168.464 32.1076 168.338 31.7725 168.226 31.4328C168.12 31.1111 167.962 30.8039 167.915 30.4455C168.256 30.3288 168.583 30.2171 168.909 30.1055C169.237 29.9934 169.565 29.8813 169.893 29.7693C170.221 29.6572 170.549 29.5451 170.877 29.4331C171.205 29.321 171.533 29.2104 171.861 29.0968C172.182 28.9835 172.512 28.8877 172.817 28.7597C172.456 27.7406 172.112 26.7712 171.758 25.7718C171.471 25.8698 171.204 25.9611 170.938 26.0519C170.66 26.147 170.383 26.2451 170.103 26.3357C169.838 26.4212 169.583 26.5387 169.278 26.5905C168.921 25.582 168.576 24.6111 168.218 23.6026C167.369 23.893 166.547 24.174 165.725 24.455C164.9 24.7369 164.076 25.0184 163.252 25.3002C162.427 25.5821 161.604 25.8651 160.779 26.1454C159.959 26.4241 159.141 26.7153 158.296 26.9857C158.105 26.4468 157.931 25.9542 157.755 25.4609C157.581 24.9736 157.405 24.4867 157.223 23.9803C156.912 24.0864 156.645 24.1777 156.378 24.269C156.1 24.3641 155.825 24.4667 155.543 24.5528C155.278 24.6333 155.03 24.7772 154.726 24.7848C154.379 23.7946 154.024 22.8306 153.685 21.8275C154.052 21.7023 154.378 21.5906 154.705 21.479C155.033 21.3669 155.361 21.2548 155.689 21.1428C156.027 21.0273 156.364 20.9118 156.702 20.7964C157.03 20.6843 157.358 20.5722 157.686 20.4601C158.014 20.3481 158.342 20.236 158.67 20.1239C158.998 20.0119 159.325 19.8998 159.653 19.7877C159.981 19.6756 160.309 19.5636 160.637 19.4515C160.975 19.336 161.313 19.2206 161.65 19.1051C161.978 18.993 162.307 18.8825 162.634 18.7689C162.957 18.657 163.277 18.5406 163.622 18.4177C163.26 17.3956 162.915 16.4247 162.557 15.4132C164.215 14.8465 165.848 14.2882 167.516 13.7181C166.8 11.6981 166.098 9.71868 165.384 7.70617C165.745 7.58264 166.072 7.47099 166.398 7.35935C166.726 7.24728 167.054 7.1352 167.382 7.02313C167.71 6.91106 168.038 6.79899 168.366 6.68692C168.694 6.57485 169.023 6.46579 169.349 6.35071C169.671 6.23732 170.001 6.14308 170.307 6.01009C170.193 5.49858 168.321 0.271876 168.165 0.0182975C167.369 0.290411 166.569 0.563797 165.734 0.849069C166.089 1.84855 166.436 2.82846 166.798 3.84751C165.13 4.41763 163.496 4.97587 161.825 5.54726C162.186 6.56631 162.533 7.54622 162.892 8.55775C162.31 8.75684 161.766 8.94278 161.222 9.12872C160.675 9.3155 160.128 9.50078 159.584 9.68865C159.043 9.87524 158.497 10.0532 157.931 10.2601C158.293 11.2807 158.637 12.2501 158.994 13.2571C154.848 14.6741 150.732 16.0809 146.581 17.4996C146.943 18.5187 147.29 19.4971 147.65 20.5116C147.309 20.6279 147.003 20.7328 146.697 20.8372C146.389 20.9425 146.081 21.0478 145.773 21.1531C145.465 21.2583 145.157 21.3636 144.849 21.4689C144.541 21.5742 144.233 21.6795 143.925 21.7847C143.607 21.8934 143.289 22.0021 142.971 22.1108C142.663 22.216 142.355 22.3213 142.047 22.4266C141.739 22.5319 141.43 22.6342 141.124 22.744C140.822 22.8505 140.51 22.935 140.197 23.0774C140.558 24.0949 140.902 25.0643 141.263 26.0819C140.43 26.3667 139.622 26.6426 138.805 26.922C139.166 27.9395 139.509 28.9074 139.866 29.9144C141.517 29.3502 143.149 28.7924 144.821 28.221C145.182 29.2385 145.529 30.2185 145.89 31.236C148.388 30.3823 150.846 29.5422 153.316 28.6978C154.025 30.717 154.728 32.6979 155.444 34.7179Z" fill="#FFE1B5"/>
</svg>
