<svg width="100" height="78" viewBox="0 0 100 78" fill="none" xmlns="http://www.w3.org/2000/svg">
<path d="M11.1113 33.334H22.222V44.4447H11.1113V33.334Z" fill="#FFE1B5"/>
<path d="M22.2227 44.4453H33.3334V55.556H22.2227V44.4453Z" fill="#FFE1B5"/>
<path d="M33.334 55.5566H44.4447V66.6674H33.334V55.5566Z" fill="#FFE1B5"/>
<path d="M44.4453 66.668H55.556V77.7787H44.4453V66.668Z" fill="#FFE1B5"/>
<path d="M55.5566 55.5566H66.6674V66.6674H55.5566V55.5566Z" fill="#FFE1B5"/>
<path d="M66.668 44.4453H77.7787V55.556H66.668V44.4453Z" fill="#FFE1B5"/>
<path d="M77.7793 33.334H88.89V44.4447H77.7793V33.334Z" fill="#FFE1B5"/>
<path d="M88.8897 11.1116V0H11.1116V11.1116H0V33.3339H11.1116V22.2232H22.2223V11.1125H33.3339V22.2232H44.4446V11.1125H55.5554V22.2232H66.667V11.1125H77.7777V22.2232H88.8893V33.3339H100V11.1116H88.8897Z" fill="#FFE1B5"/>
<path d="M22.2227 22.2227H33.3334V33.3334H22.2227V22.2227Z" fill="#FFE1B5"/>
<path d="M44.4453 22.2227H55.556V33.3334H44.4453V22.2227Z" fill="#FFE1B5"/>
<path d="M66.668 22.2227H77.7787V33.3334H66.668V22.2227Z" fill="#FFE1B5"/>
</svg>
