<svg width="100" height="100" viewBox="0 0 100 100" fill="none" xmlns="http://www.w3.org/2000/svg">
<path d="M96.6647 34.5222H96.5453V27.6181H93.0941V20.7124H89.6396V17.2603H86.1883V13.8083H82.7363V10.3562H79.2826V6.90413H75.8306L75.8313 3.45206H65.4733V0H34.5224V3.45206H24.166V6.90573H20.7116V10.3578H17.2595V13.8099H13.8075V17.2635H10.3554V20.7148H6.90173V27.6205L3.45047 27.6189V34.5231L0 34.5239V68.9286H3.45126V75.8328H6.90333V79.2848H10.357V86.1905H13.8091V89.6442H20.7118V93.0963H24.1662V96.5483H34.5226V100H65.4736L65.4728 96.5451H75.8308V93.0931H79.2828V89.641H86.1885V86.1874H89.6398V79.2816H93.0943V75.8296H96.5455V68.9254H100L99.9984 34.5207L96.6647 34.5222ZM96.6647 45.9843V65.5944H93.2111V72.5001H89.7598V75.8329L89.7606 75.9523H86.3069V82.8543H82.8549V86.3063H75.9491V89.7584H72.4955V93.2105H62.1375V96.6625H37.8566V93.2127H27.498V89.7606H24.0459V86.3093H17.1448V82.8581H13.6911V75.9523H10.2399V72.5003L6.7846 72.4995V65.5938L3.33174 65.5945V37.8578H6.7854V30.9536H10.2367V24.0479H13.6879V20.5959H17.1416V17.1446H20.5929V13.6933H24.0441V10.2397H27.4978V6.7884H37.8564L37.854 3.33394H62.1349L62.1373 6.786H72.4913L72.4944 10.2381H75.9481V13.6917H79.4017V17.1438H82.8538V20.5959H86.305L86.3058 24.0479H89.7595V30.9536H93.2108V37.8578H96.6644L96.6636 45.9848L96.6647 45.9843Z" fill="#FFE1B5"/>
<path d="M41.2802 41.4322V38.0986H27.2852V41.4322H30.9775V48.3342H37.8833V41.4322H41.2802Z" fill="#FFE1B5"/>
<path d="M44.8809 58.6914H55.1178V62.025H44.8809V58.6914Z" fill="#FFE1B5"/>
<path d="M72.437 41.3922V38.0586H58.4414V41.3922H62.1378V48.2933H69.0405V41.3922H72.437Z" fill="#FFE1B5"/>
</svg>
