<svg width="100" height="107" viewBox="0 0 100 107" fill="none" xmlns="http://www.w3.org/2000/svg">
<path d="M33.3301 66.6914H66.6765V73.3501H33.3301V66.6914Z" fill="#FFE1B5"/>
<path d="M46.6454 60.0151V53.3564H53.3214V60.0151H73.3495V46.6621H26.6523V60.0151H46.6454Z" fill="#FFE1B5"/>
<path d="M66.6738 33.3281V39.9857H93.3409V46.6628H99.9996V33.3281H66.6738Z" fill="#FFE1B5"/>
<path d="M80.0078 99.9985V106.675H100V93.3398H93.3414V99.9985H80.0078Z" fill="#FFE1B5"/>
<path d="M86.666 80.0059H93.342V93.3394H86.666V80.0059Z" fill="#FFE1B5"/>
<path d="M86.666 46.6621H93.342V53.3567H86.666V46.6621Z" fill="#FFE1B5"/>
<path d="M80.0078 66.6914H86.6665V80.0085H80.0078V66.6914Z" fill="#FFE1B5"/>
<path d="M80.0078 53.3574H86.6665V60.0161H80.0078V53.3574Z" fill="#FFE1B5"/>
<path d="M66.6738 93.3398H80.0074V99.9985H66.6738V93.3398Z" fill="#FFE1B5"/>
<path d="M73.3477 60.0156H80.0064V66.6916H73.3477V60.0156Z" fill="#FFE1B5"/>
<path d="M53.3203 86.6836H66.6733V93.3423H53.3203V86.6836Z" fill="#FFE1B5"/>
<path d="M60.0156 19.9912H66.6743V33.3248H60.0156V19.9912Z" fill="#FFE1B5"/>
<path d="M53.3203 6.67676H60.0149V19.9939H53.3203V6.67676Z" fill="#FFE1B5"/>
<path d="M46.6445 80.0059H53.3205V86.6818H46.6445V80.0059Z" fill="#FFE1B5"/>
<path d="M46.6445 0H53.3205V6.67596H46.6445V0Z" fill="#FFE1B5"/>
<path d="M39.9883 6.67676H46.647V19.9939H39.9883V6.67676Z" fill="#FFE1B5"/>
<path d="M33.3301 86.6836H46.6472V93.3423H33.3301V86.6836Z" fill="#FFE1B5"/>
<path d="M33.3301 19.9912H39.9888V33.3248H33.3301V19.9912Z" fill="#FFE1B5"/>
<path d="M19.9961 93.3398H33.3296V99.9985H19.9961V93.3398Z" fill="#FFE1B5"/>
<path d="M19.9961 60.0156H26.6526V66.6916H19.9961V60.0156Z" fill="#FFE1B5"/>
<path d="M13.3379 66.6914H19.9966V80.0085H13.3379V66.6914Z" fill="#FFE1B5"/>
<path d="M13.3379 53.3574H19.9966V60.0161H13.3379V53.3574Z" fill="#FFE1B5"/>
<path d="M6.65871 99.9985V93.3398H0V106.675H19.9942V99.9985H6.65871Z" fill="#FFE1B5"/>
<path d="M6.66016 80.0059H13.3372V93.3394H6.66016V80.0059Z" fill="#FFE1B5"/>
<path d="M6.66016 46.6621H13.3372V53.3567H6.66016V46.6621Z" fill="#FFE1B5"/>
<path d="M33.3308 39.9838V33.3262H0.00390625V46.6608H6.66261V39.9838H33.3308Z" fill="#FFE1B5"/>
</svg>
