<svg width="40" height="40" viewBox="0 0 40 40" fill="none" xmlns="http://www.w3.org/2000/svg">
<rect width="40" height="40" rx="20" fill="#C1AF92"/>
<path d="M19.5058 29L19.5058 28.9999L19.4942 29C19.4888 29 19.4833 28.999 19.4779 28.9968L19.097 29.9214L19.4778 28.9968C19.4726 28.9946 19.4674 28.9913 19.4625 28.9866C19.4623 28.9864 19.4621 28.9862 19.4618 28.9859L11.311 20.7547C11.3104 20.7541 11.3099 20.7536 11.3094 20.7531C10.4715 19.8983 10 18.743 10 17.5373C10 16.332 10.4712 15.177 11.3086 14.3223C12.1529 13.4745 13.2939 13 14.4817 13C15.6703 13 16.8122 13.4752 17.6566 14.3242C17.6567 14.3243 17.6569 14.3245 17.657 14.3246L18.7899 15.4672L19.5 16.1834L20.2101 15.4672L21.343 14.3246C21.3431 14.3245 21.3433 14.3243 21.3434 14.3242C22.1878 13.4752 23.3297 13 24.5183 13C25.7061 13 26.8471 13.4745 27.6913 14.3222C28.5288 15.1769 29 16.332 29 17.5373C29 18.743 28.5285 19.8985 27.6904 20.7533C27.69 20.7537 27.6895 20.7542 27.689 20.7547L19.5382 28.9859C19.5379 28.9862 19.5377 28.9864 19.5375 28.9866C19.5326 28.9913 19.5274 28.9946 19.5222 28.9968L19.5221 28.9968C19.5167 28.999 19.5112 29 19.5058 29Z" stroke="black" stroke-width="2"/>
</svg>
