<svg width="192" height="165" viewBox="0 0 192 165" fill="none" xmlns="http://www.w3.org/2000/svg">
<path d="M51.6247 50.7361C51.6247 48.686 51.6247 46.6358 51.6247 44.4902C62.2032 44.4902 72.6447 44.4902 83.3346 44.4902C83.3346 46.5563 83.3346 48.6446 83.3346 50.7361L83.3951 50.6883C79.1803 50.6883 74.9654 50.6883 70.6997 50.6883C70.6997 67.7291 70.6997 84.5852 70.6997 101.483C87.6768 101.483 104.571 101.483 121.535 101.483C121.535 97.1819 121.535 93.0053 121.535 88.8287L121.488 88.8892C123.541 88.8892 125.594 88.8892 127.778 88.8892C127.778 97.3761 127.778 105.723 127.778 114.194C132.06 114.194 136.214 114.194 140.556 114.194C140.556 107.977 140.556 101.712 140.556 95.3133C142.734 95.3133 144.723 95.3133 146.904 95.3133C146.904 93.1581 146.904 91.1271 146.904 88.9656C151.198 88.9656 155.308 88.9656 159.609 88.9656C159.609 86.8136 159.609 84.7794 159.609 82.5605C163.942 82.5605 168.093 82.5605 172.368 82.5605C172.368 80.3831 172.368 78.3935 172.368 76.2128C176.646 76.2128 180.794 76.2128 185.073 76.2128C185.073 74.0354 185.073 72.0458 185.073 69.9384C187.187 69.9384 189.17 69.9384 191.274 69.9384C191.274 80.3576 191.274 90.8151 191.274 101.53C189.24 101.53 187.145 101.53 185.054 101.53L185.102 101.591C185.102 95.256 185.102 88.9242 185.102 82.5542C182.883 82.5542 180.849 82.5542 178.63 82.5542C178.63 84.6775 178.63 86.7085 178.63 88.8637C174.332 88.8637 170.226 88.8637 165.928 88.8637C165.928 91.022 165.928 93.053 165.928 95.2082C161.63 95.2082 157.524 95.2082 153.226 95.2082C153.226 97.3665 153.226 99.3944 153.226 101.61C151.011 101.61 148.976 101.61 146.828 101.61C146.828 108.025 146.828 114.251 146.828 120.663C140.432 120.663 134.167 120.663 127.95 120.663C127.95 122.888 127.95 124.919 127.95 127.02C136.488 127.02 144.902 127.02 153.315 127.02L153.255 126.972C153.255 129.022 153.255 131.072 153.255 133.317C140.458 133.317 127.791 133.317 115.127 133.317L115.175 133.377C115.175 129.169 115.175 124.957 115.175 120.621C117.426 120.621 119.418 120.621 121.453 120.621C121.453 116.336 121.453 112.185 121.453 107.856C102.387 107.856 83.4174 107.856 64.266 107.856C64.266 88.7045 64.266 69.7346 64.266 50.6915C59.9111 50.6915 55.7313 50.6915 51.5547 50.6915L51.6247 50.7361Z" fill="#FFE1B5"/>
<path d="M13.4781 69.7483C11.4248 69.7483 9.3715 69.7483 7.1845 69.7483C7.1845 65.4985 7.1845 61.3887 7.1845 57.0911C5.02934 57.0911 2.99833 57.0911 0.875 57.0911C0.875 37.9684 0.875 19.0336 0.875 0C4.99751 0 9.09773 0 13.3921 0C13.3921 2.03101 13.3921 4.06202 13.3921 6.22037C15.5696 6.22037 17.5624 6.22037 19.7398 6.22037C19.7398 10.4989 19.7398 14.6468 19.7398 18.9253C21.9173 18.9253 23.9069 18.9253 26.0875 18.9253C26.0875 25.3208 26.0875 31.5889 26.0875 37.9875C28.2618 37.9875 30.2546 37.9875 32.4352 37.9875C32.4352 42.2629 32.4352 46.414 32.4352 50.7371C38.958 50.7371 45.2962 50.7371 51.6312 50.7371L51.5707 50.6893C51.5707 52.7744 51.5707 54.8628 51.5707 57.1134C47.1871 57.1134 43.0519 57.1134 38.8976 57.1134C38.8976 59.3386 38.8976 61.3919 38.8976 63.442C34.6477 63.4293 30.3947 63.4134 26.1448 63.4006L26.1926 63.4484C26.1926 57.1166 26.1926 50.7816 26.1926 44.262C23.9833 44.262 21.9523 44.262 19.8003 44.262C19.8003 37.8475 19.8003 31.6207 19.8003 25.2094C17.6452 25.2094 15.6142 25.2094 13.459 25.2094C13.459 20.915 13.459 16.8052 13.459 12.6668C11.2529 12.6668 9.18368 12.6668 7.1845 12.6668C7.1845 25.429 7.1845 38.0512 7.1845 50.8071C9.30465 50.8071 11.2943 50.8071 13.4272 50.8071C13.4272 57.228 13.4272 63.5184 13.4272 69.8056L13.4781 69.7483Z" fill="#FFE1B5"/>
<path d="M108.841 25.3102C108.841 23.2569 108.841 21.2036 108.841 19.0198C110.967 19.0198 112.957 19.0198 115.137 19.0198C115.137 16.8678 115.137 14.8336 115.137 12.6784C119.432 12.6784 123.538 12.6784 127.836 12.6784C127.836 10.5264 127.836 8.49543 127.836 6.36255C132.124 6.36255 136.224 6.36255 140.439 6.36255C140.439 16.8041 140.439 27.2584 140.439 37.9642C138.395 37.9642 136.304 37.9642 134.212 37.9642L134.26 38.0247C134.26 31.6961 134.26 25.3706 134.26 19.0261C129.908 19.0261 125.725 19.0261 121.412 19.0261C121.412 21.1495 121.412 23.1391 121.412 25.2624C117.117 25.2624 112.95 25.2624 108.783 25.2624L108.841 25.3102Z" fill="#FFE1B5"/>
<path d="M127.839 50.686C127.839 54.8499 127.839 59.017 127.839 63.3655C125.696 63.3655 123.668 63.3655 121.516 63.3655C121.516 65.5334 121.516 67.5231 121.516 69.6941C119.368 69.6941 117.34 69.6941 115.124 69.6941C115.124 71.9703 115.124 74.0649 115.124 76.1596L115.185 76.1119C113.099 76.1119 111.014 76.1119 108.789 76.1119C108.789 71.7156 108.789 67.5613 108.789 63.4069C110.881 63.4069 112.972 63.4069 115.245 63.4069C115.245 61.2454 115.245 59.2176 115.245 57.0146C117.454 57.0146 119.479 57.0146 121.625 57.0146C121.625 54.8436 121.625 52.8571 121.625 50.7338C123.799 50.7338 125.849 50.7338 127.899 50.7338L127.839 50.686Z" fill="#FFE1B5"/>
<path d="M83.3368 158.754C83.3368 160.804 83.3368 162.854 83.3368 165C72.7583 165 62.3168 165 51.6269 165C51.6269 162.934 51.6269 160.845 51.6269 158.754L51.5664 158.802C62.1767 158.802 72.7901 158.802 83.4004 158.802L83.3368 158.754Z" fill="#FFE1B5"/>
<path d="M178.691 114.254C178.691 118.421 178.691 122.585 178.691 126.968C170.134 126.968 161.698 126.968 153.262 126.968L153.322 127.016C153.322 124.928 153.322 122.836 153.322 120.579C159.835 120.579 166.091 120.579 172.47 120.579C172.47 118.418 172.47 116.428 172.47 114.301C174.648 114.301 176.698 114.301 178.748 114.301L178.691 114.254Z" fill="#FFE1B5"/>
<path d="M13.4763 120.602C11.4262 120.602 9.37608 120.602 7.23047 120.602C7.23047 110.023 7.23047 99.5819 7.23047 88.892C9.2965 88.892 11.3848 88.892 13.4763 88.892L13.4286 88.8315C13.4286 99.4418 13.4286 110.055 13.4286 120.666L13.4763 120.602Z" fill="#FFE1B5"/>
<path d="M13.4735 88.8875C13.4735 82.5047 13.4735 76.1252 13.4735 69.7425L13.4258 69.803C15.5173 69.803 17.6056 69.803 19.8722 69.803C19.8722 67.6191 19.8722 65.5945 19.8722 63.4457C22.0942 63.4457 24.1411 63.4457 26.188 63.4457L26.1403 63.3979C26.1403 67.6 26.1403 71.8053 26.1403 76.1347C23.9087 76.1347 21.9191 76.1347 19.7544 76.1347C19.7544 80.4005 19.7544 84.5453 19.7544 88.827C17.526 88.827 15.4759 88.827 13.4258 88.827L13.4735 88.8875Z" fill="#FFE1B5"/>
<path d="M83.3301 50.737C85.3834 50.737 87.4399 50.737 89.6746 50.737C89.6746 48.6742 89.6746 46.6495 89.6746 44.3925C91.9348 44.3925 94.0199 44.3925 96.1051 44.3925L96.0573 44.332C96.0701 48.5819 96.086 52.8349 96.0987 57.0847C91.9062 57.0847 87.7136 57.0847 83.3938 57.0847C83.3938 54.78 83.3938 52.733 83.3938 50.6893L83.3301 50.737Z" fill="#FFE1B5"/>
<path d="M96.1259 44.3924C96.1259 40.2317 96.1259 36.0742 96.1259 31.6779C98.3097 31.6779 100.398 31.6779 102.483 31.6779L102.435 31.6174C102.435 35.8132 102.435 40.0057 102.435 44.3319C100.172 44.3319 98.1251 44.3319 96.0781 44.3319L96.1259 44.3924Z" fill="#FFE1B5"/>
<path d="M134.206 37.9602C134.206 42.1209 134.206 46.2848 134.206 50.6874C132.013 50.6874 129.924 50.6874 127.836 50.6874L127.896 50.7352C127.896 46.5395 127.896 42.3469 127.896 38.0207C130.16 38.0207 132.207 38.0207 134.254 38.0207L134.206 37.9602Z" fill="#FFE1B5"/>
<path d="M185.04 101.533C185.04 105.693 185.04 109.857 185.04 114.26C182.847 114.26 180.758 114.26 178.67 114.26L178.73 114.308C178.73 110.112 178.73 105.919 178.73 101.593C180.994 101.593 183.041 101.593 185.088 101.593L185.04 101.533Z" fill="#FFE1B5"/>
<path d="M19.8308 133.317C17.7839 133.317 15.7369 133.317 13.4735 133.317C13.4735 129 13.4735 124.801 13.4735 120.602L13.4258 120.663C15.5587 120.65 17.6915 120.637 19.8244 120.625C19.8117 124.874 19.7958 129.127 19.783 133.377L19.8308 133.317Z" fill="#FFE1B5"/>
<path d="M26.1921 146.03C24.1452 146.03 22.0983 146.03 19.8349 146.03C19.8349 141.713 19.8349 137.514 19.8349 133.315L19.7871 133.376C21.92 133.363 24.0529 133.35 26.1857 133.338C26.173 137.588 26.1571 141.841 26.1444 146.09L26.1921 146.03Z" fill="#FFE1B5"/>
<path d="M115.135 133.315C115.135 137.476 115.135 141.634 115.135 146.03C112.951 146.03 110.862 146.03 108.777 146.03L108.825 146.09C108.825 141.895 108.825 137.702 108.825 133.376C111.088 133.376 113.135 133.376 115.182 133.376L115.135 133.315Z" fill="#FFE1B5"/>
<path d="M115.121 76.1654C117.171 76.1654 119.218 76.1654 121.491 76.1654C121.491 80.4917 121.491 84.6906 121.491 88.8927L121.539 88.8322C119.454 88.8322 117.369 88.8322 115.182 88.8322C115.182 84.4327 115.182 80.2752 115.182 76.1177L115.121 76.1654Z" fill="#FFE1B5"/>
<path d="M38.8931 152.386C34.7356 152.386 30.5749 152.386 26.1786 152.386C26.1786 150.202 26.1786 148.117 26.1786 146.029L26.1309 146.089C30.3839 146.077 34.6337 146.064 38.8868 146.051C38.874 148.184 38.8581 150.314 38.8454 152.447L38.8931 152.386Z" fill="#FFE1B5"/>
<path d="M108.793 146.029C108.793 148.076 108.793 150.126 108.793 152.386C104.473 152.386 100.277 152.386 96.0781 152.386L96.1259 152.447C96.1131 150.314 96.0972 148.184 96.0845 146.051C100.338 146.064 104.587 146.077 108.84 146.089L108.793 146.029Z" fill="#FFE1B5"/>
<path d="M83.0989 145.762C83.0989 147.875 83.0989 149.992 83.0989 152.325C72.5261 152.325 62.2572 152.325 51.9805 152.325L52.0973 152.388C52.0662 150.186 52.0272 147.987 51.996 145.785C62.4052 145.798 72.8066 145.812 83.2157 145.825L83.0989 145.762Z" fill="#FFE1B5"/>
<path d="M51.6383 158.758C47.4776 158.758 43.3137 158.758 38.911 158.758C38.911 156.565 38.911 154.477 38.911 152.388L38.8633 152.449C43.1131 152.436 47.3661 152.42 51.616 152.408C51.6033 154.54 51.5905 156.673 51.5778 158.806L51.6383 158.758Z" fill="#FFE1B5"/>
<path d="M96.0573 152.388C96.0573 154.439 96.0573 156.485 96.0573 158.758C91.7311 158.758 87.5322 158.758 83.3301 158.758L83.3906 158.806C83.3778 156.673 83.3651 154.54 83.3524 152.408C87.6022 152.42 91.8552 152.436 96.1051 152.449L96.0573 152.388Z" fill="#FFE1B5"/>
<path d="M102.464 31.6787C102.464 29.6318 102.464 27.5881 102.464 25.3087C104.663 25.3087 106.749 25.3087 108.834 25.3087L108.773 25.261C108.773 27.3429 108.773 29.4217 108.773 31.6182C106.5 31.6182 104.46 31.6182 102.416 31.6182L102.464 31.6787Z" fill="#FFE1B5"/>
<path d="M26.1762 120.656C24.0465 120.656 21.9168 120.656 19.7871 120.656C19.7871 112.267 19.7871 103.879 19.7871 95.1948C22.0028 95.1948 24.0911 95.1948 26.1762 95.1948C26.1762 103.682 26.1762 112.169 26.1762 120.656Z" fill="#FFE1B5"/>
<path d="M26.1309 95.2251C26.1309 91.0708 26.1309 86.9164 26.1309 82.4788C28.3561 82.4788 30.438 82.4788 32.5199 82.4788C32.5199 86.6331 32.5199 90.7874 32.5199 95.2251C30.2947 95.2251 28.2128 95.2251 26.1309 95.2251Z" fill="#FFE1B5"/>
<path d="M32.5199 133.368C30.3903 133.368 28.2606 133.368 26.1309 133.368C26.1309 129.119 26.1309 124.872 26.1309 120.622C28.1746 120.622 30.2183 120.622 32.5199 120.622C32.5199 124.983 32.5199 129.176 32.5199 133.368Z" fill="#FFE1B5"/>
<path d="M96.1792 139.754C96.1792 135.593 96.1792 131.432 96.1792 127.042C98.2962 127.042 100.381 127.042 102.466 127.042L102.412 126.988C102.412 131.159 102.412 135.326 102.412 139.706C100.222 139.706 98.1721 139.706 96.1251 139.706C96.1219 139.703 96.1792 139.754 96.1792 139.754Z" fill="#FFE1B5"/>
<path d="M96.1096 146.084C91.8598 146.084 87.6131 146.084 83.3633 146.084C83.3633 144.034 83.3633 141.987 83.3633 139.755C87.7564 139.755 91.9648 139.755 96.1733 139.755C96.1733 139.755 96.116 139.704 96.1192 139.704C96.116 141.831 96.1128 143.957 96.1096 146.084Z" fill="#FFE1B5"/>
<path d="M32.5137 82.5139C32.5137 78.3596 32.5137 74.2052 32.5137 69.7676C34.7389 69.7676 36.8208 69.7676 38.9028 69.7676C38.9028 73.9219 38.9028 78.0763 38.9028 82.5139C36.6776 82.5139 34.5956 82.5139 32.5137 82.5139Z" fill="#FFE1B5"/>
<path d="M51.6155 146.085C47.3656 146.085 43.119 146.085 38.8691 146.085C38.8691 143.955 38.8691 141.825 38.8691 139.696C43.0235 139.696 47.1778 139.696 51.6155 139.696C51.6155 141.918 51.6155 144.003 51.6155 146.085Z" fill="#FFE1B5"/>
<path d="M38.8691 69.8034C38.8691 67.6737 38.8691 65.544 38.8691 63.4143C43.0298 63.4143 47.1906 63.4143 51.4563 63.4143C51.4563 65.5599 51.4563 67.54 51.4563 69.8034C47.267 69.8034 43.068 69.8034 38.8691 69.8034Z" fill="#FFE1B5"/>
<path d="M102.47 127.043C102.47 124.989 102.47 122.936 102.47 120.781C104.59 120.781 106.574 120.781 108.665 120.781C108.665 122.758 108.665 124.738 108.665 126.989C106.599 126.989 104.508 126.989 102.416 126.989C102.413 126.989 102.47 127.043 102.47 127.043Z" fill="#FFE1B5"/>
<path d="M38.9028 139.723C36.8622 139.723 34.8248 139.723 32.5137 139.723C32.5137 137.488 32.5137 135.413 32.5137 133.334C34.5542 133.334 36.5916 133.334 38.9028 133.334C38.9028 135.565 38.9028 137.644 38.9028 139.723Z" fill="#FFE1B5"/>
<path d="M96.0781 57.053C100.232 57.053 104.387 57.053 108.824 57.053C108.824 59.2782 108.824 61.3601 108.824 63.4421C104.67 63.4421 100.516 63.4421 96.0781 63.4421C96.0781 61.2169 96.0781 59.1349 96.0781 57.053Z" fill="#FFE1B5"/>
</svg>
