<svg width="400" height="379" viewBox="0 0 400 379" fill="none" xmlns="http://www.w3.org/2000/svg">
<path d="M231.429 273.941V252.852H252.503V231.793H273.576V210.704H294.638V231.793H315.712V210.704H336.794V189.645H294.638V147.497H357.884V126.443H315.712V105.353H400V21.0582H378.942V0H231.431V21.0582H210.358V126.446H189.299V147.504H168.21V168.563H147.151V189.653H126.057V210.703H63.2063V189.648H42.1481V168.559H21.0582V126.446H0V210.71H21.0582V231.8H42.1481V252.858H63.2063V273.948H83.9094V294.651H104.999V315.709H126.177V378.954H168.325V357.864H147.235V316.139H168.214V295.049H189.304V316.139H210.362V357.864H210.242V378.954H252.39V357.864H231.432V273.983M252.506 84.2992V63.2093H273.579V84.2992H252.506Z" fill="#FAB042"/>
</svg>
