<svg width="400" height="354" viewBox="0 0 400 354" fill="none" xmlns="http://www.w3.org/2000/svg">
<path fill-rule="evenodd" clip-rule="evenodd" d="M188.133 282.773H211.875V306.515H188.133V282.773Z" fill="#FAB042"/>
<path fill-rule="evenodd" clip-rule="evenodd" d="M376.98 70.2416V23.7674H353.545V0.00249989H282.215V23.6048L276.762 23.3794C276.762 23.3794 174.542 23.42 123.44 23.3749C121.489 23.3749 119.537 22.9242 117.586 22.6493V22.8701H117.388V46.3282H282.235V24.1093C298.095 24.1093 312.486 24.3932 328.409 24.3932V46.8683H347.419H353.548V52.7497V70.2406H376.321V117.327H328.4V81.4758V70.2402H305.857L305.942 82.9672C305.942 82.9672 305.915 121.086 305.915 140.853H328.4V258.513H305.275C305.275 250.806 305.383 243.45 305.383 235.703H259.531V258.603H305.275V305.599H282.758V329.833H118.003V306.158H95.2161V259.648H95.3513C87.4553 259.287 70.2168 259.648 70.2168 259.648V141.365H93.9091V70.2887C87.0948 70.2887 70.2168 70.5726 70.2168 70.5726V76.6253V117.354H24.1384V70.8612H46.8753V47.0835H70.2203V22.8813C86.3324 22.8813 102.106 22.8813 117.384 22.8678V22.6154C117.448 22.6199 117.52 22.6334 117.583 22.647C117.659 15.089 117.749 7.53976 117.849 0H46.5192V23.2008H23.5838V69.7788H0V141.108H46.4431V282.443H70.2207V314.96V329.833H84.7233H94.5843V353.553H307.024V329.833H328.404V322.96V282.624H353.151C353.151 235.207 353.552 188.782 353.552 141.359H400V70.2403H376.988L376.98 70.2416Z" fill="#FAB042"/>
<path fill-rule="evenodd" clip-rule="evenodd" d="M188.331 258.269H212.578V235.275H235.112V212.731H164.724V235.653H188.321C188.33 243.86 188.33 251.193 188.33 258.269H188.331Z" fill="#FAB042"/>
<path fill-rule="evenodd" clip-rule="evenodd" d="M164.125 118.469H141.474V164.113H164.125V118.469V118.469Z" fill="#FAB042"/>
<path fill-rule="evenodd" clip-rule="evenodd" d="M258.468 118.19H235.808V164.269H258.468V118.19V118.19Z" fill="#FAB042"/>
<path fill-rule="evenodd" clip-rule="evenodd" d="M140.647 235.747H95.6006L95.3438 259.647C110.374 259.633 125.409 259.647 140.642 259.647C140.647 250.872 140.647 243.391 140.647 235.747H140.647Z" fill="#FAB042"/>
</svg>
