<svg width="400" height="401" viewBox="0 0 400 401" fill="none" xmlns="http://www.w3.org/2000/svg">
<path d="M386.659 138.089H386.181V110.472H372.376V82.8495H358.558V69.0413H344.753V55.233H330.945V41.4248H317.13V27.6165H303.322L303.325 13.8083H261.893V0H138.09V13.8083H96.6642V27.6229H82.8463V41.4312H69.0381V55.2394H55.2298V69.0541H41.4216V82.8591H27.6069V110.482L13.8019 110.476V138.092L0 138.095V275.715H13.8051V303.331H27.6133V317.139H41.428V344.762H55.2362V358.577H82.8471V372.385H96.665V386.193H138.091V400.002H261.894L261.891 386.181H303.323V372.372H317.131V358.564H344.754V344.749H358.559V317.127H372.377V303.318H386.182V275.702H400L399.994 138.083L386.659 138.089ZM386.659 183.937V262.378H372.844V290.001H359.039V303.332L359.042 303.809H345.228V331.417H331.419V345.225H303.797V359.034H289.982V372.842H248.55V386.65H151.426V372.851H109.992V359.042H96.1837V345.237H68.5792V331.432H54.7645V303.809H40.9595V290.001L27.1384 289.998V262.375L13.327 262.378V151.431H27.1416V123.815H40.9467V96.1917H54.7517V82.3834H68.5664V68.5784H82.3714V54.7733H96.1765V40.9587H109.991V27.1536H151.425L151.416 13.3357H248.54L248.549 27.144H289.965L289.978 40.9523H303.792V54.7669H317.607V68.5752H331.415V82.3834H345.22L345.223 96.1917H359.038V123.815H372.843V151.431H386.658L386.655 183.939L386.659 183.937Z" fill="#FAB042"/>
<path d="M165.125 165.728V152.394H109.145V165.728H123.914V193.336H151.537V165.728H165.125Z" fill="#FAB042"/>
<path d="M179.523 234.766H220.471V248.1H179.523V234.766Z" fill="#FAB042"/>
<path d="M289.744 165.568V152.233H233.762V165.568H248.547V193.172H276.158V165.568H289.744Z" fill="#FAB042"/>
</svg>
