<svg width="400" height="357" viewBox="0 0 400 357" fill="none" xmlns="http://www.w3.org/2000/svg">
<path d="M15.5045 179.106C15.3435 179.127 15.1798 179.168 15.0187 179.168C10.074 179.17 5.13182 179.17 0.187084 179.168C0.124723 179.168 0.0623613 179.16 0 179.158C0 174.01 0 168.865 0 163.719C2.39572 163.719 4.79143 163.721 7.18454 163.719C7.34565 163.719 7.50934 163.687 7.67044 163.669L7.66265 163.661C7.69642 163.903 7.75879 164.144 7.76138 164.382C7.76918 166.476 7.76658 168.572 7.76658 170.666C7.76658 170.892 7.76658 171.118 7.76658 171.388C8.43436 171.512 9.07357 171.429 9.70498 171.444C10.3286 171.46 10.9522 171.446 11.5732 171.446C12.2176 171.446 12.862 171.446 13.5038 171.446C14.1249 171.446 14.7433 171.446 15.4266 171.446C15.4371 171.712 15.4552 171.929 15.4552 172.151C15.4578 174.244 15.4552 176.34 15.4578 178.434C15.4578 178.662 15.4786 178.888 15.4864 179.117C15.4889 179.127 15.5045 179.106 15.5045 179.106Z" fill="#FAB042"/>
<path d="M53.805 264.165C53.8309 264.305 53.8803 264.445 53.8803 264.584C53.8855 266.889 53.883 269.19 53.883 271.494C53.883 271.613 53.8621 271.736 53.8491 271.912C51.3235 271.912 48.8187 271.912 46.2255 271.912C46.2203 277.08 46.2255 282.191 46.2203 287.372C43.6375 287.372 41.1171 287.372 38.542 287.372C38.542 289.965 38.542 292.489 38.542 295.098C35.9671 295.113 33.4467 295.096 30.8665 295.108C30.8665 297.68 30.8665 300.205 30.8665 302.711C30.3727 302.848 24.1288 302.887 23.2012 302.767C23.2012 297.664 23.2012 292.554 23.2012 287.391C25.7294 287.391 28.2343 287.391 30.8248 287.391C30.8509 285.649 30.8353 283.958 30.8378 282.269C30.8404 280.546 30.8378 278.823 30.8378 277.103C30.8378 275.406 30.8378 273.71 30.8378 271.938C33.418 271.938 35.9384 271.938 38.5135 271.938C38.5135 264.196 38.5135 256.527 38.5135 248.828C38.7006 248.8 38.8357 248.761 38.9734 248.761C41.26 248.758 43.5439 248.756 45.8306 248.761C45.9943 248.761 46.158 248.805 46.319 248.828L46.3061 248.818C46.2775 249.018 46.2255 249.221 46.2255 249.42C46.2203 254.129 46.2203 258.839 46.2229 263.547C46.2229 263.747 46.2437 263.949 46.2566 264.181C46.4178 264.193 46.5373 264.209 46.6594 264.209C48.9642 264.211 51.2716 264.209 53.5764 264.209C53.6594 264.209 53.7401 264.191 53.8257 264.183C53.8232 264.181 53.805 264.165 53.805 264.165Z" fill="#FAB042"/>
<path d="M53.8259 102.01C53.6076 101.976 53.3894 101.916 53.1685 101.916C51.0949 101.909 49.0241 101.911 46.9505 101.911C46.7271 101.911 46.5062 101.911 46.2308 101.911C46.2308 99.3115 46.2308 96.7923 46.2308 94.203C45.9632 94.1874 45.7449 94.1667 45.524 94.1642C43.4089 94.1615 41.2964 94.1667 39.1814 94.1564C38.9423 94.1564 38.7032 94.0785 38.4668 94.0396L38.4771 94.0474C38.4954 93.8008 38.5292 93.557 38.5292 93.3105C38.5317 88.7054 38.5317 84.1001 38.5317 79.4976C38.5317 79.2563 38.5317 79.0125 38.5317 78.7141C41.1146 78.7141 43.6194 78.7141 46.2101 78.7141C46.2412 76.968 46.2204 75.2764 46.2256 73.5849C46.2282 71.8621 46.2256 70.1419 46.2256 68.4192C46.2256 66.7225 46.2256 65.0258 46.2256 63.29C48.7876 63.29 51.2898 63.29 53.8622 63.29C53.8727 63.5286 53.8883 63.77 53.8883 64.0086C53.8908 68.6139 53.8883 73.219 53.8883 77.8215C53.8883 85.5998 53.8883 93.378 53.8856 101.156C53.8856 101.444 53.8415 101.732 53.8181 102.018C53.8156 102.023 53.8259 102.01 53.8259 102.01Z" fill="#FAB042"/>
<path d="M53.8105 102.025C53.9898 101.989 54.1691 101.921 54.3484 101.921C56.5934 101.913 58.8358 101.916 61.0808 101.919C61.2212 101.919 61.364 101.945 61.5772 101.968C61.5772 112.245 61.5772 122.503 61.5772 132.823C64.1574 132.823 66.6596 132.823 69.1488 132.823C69.2788 133.347 69.3152 139.575 69.2112 140.446C68.7824 140.577 55.0552 140.63 53.9068 140.499C53.899 140.27 53.8834 140.031 53.8834 139.789C53.8807 136.117 53.8834 132.445 53.8834 128.771C53.8834 120.098 53.8834 111.422 53.8807 102.749C53.8807 102.505 53.8444 102.258 53.8236 102.015C53.821 102.012 53.8105 102.025 53.8105 102.025Z" fill="#FAB042"/>
<path d="M84.6568 148.286C92.1558 148.283 99.6548 148.281 107.154 148.281C107.315 148.281 107.473 148.304 107.697 148.319C107.697 148.573 107.697 148.797 107.697 149.019C107.697 151.117 107.694 153.21 107.699 155.307C107.699 155.532 107.728 155.758 107.744 155.986L107.762 155.965C107.554 155.975 107.349 156 107.141 156C99.8756 156.002 92.6105 156.002 85.3428 156.002C85.1401 156.002 84.9349 156.002 84.6985 156.002C84.6751 155.841 84.6464 155.724 84.6464 155.607C84.6439 153.244 84.6439 150.88 84.6464 148.517C84.6464 148.434 84.6673 148.354 84.6776 148.271L84.6568 148.286Z" fill="#FAB042"/>
<path d="M123.018 163.771C123.181 163.759 123.348 163.733 123.511 163.733C128.307 163.73 133.105 163.73 137.901 163.73C138.044 163.73 138.187 163.73 138.316 163.73C138.452 164.207 138.497 170.455 138.374 171.435C135.879 171.435 133.377 171.435 130.794 171.435C130.743 172.12 130.774 172.757 130.769 173.387C130.764 174.03 130.766 174.674 130.766 175.314C130.766 175.937 130.766 176.56 130.766 177.18C130.766 177.817 130.766 178.456 130.766 179.129C130.595 179.149 130.477 179.172 130.361 179.172C128.056 179.175 125.751 179.175 123.446 179.172C123.303 179.172 123.16 179.136 123.02 179.118L123.038 179.139C123.049 178.955 123.07 178.767 123.07 178.583C123.072 173.822 123.072 169.062 123.07 164.303C123.07 164.119 123.046 163.932 123.036 163.748C123.036 163.751 123.018 163.771 123.018 163.771Z" fill="#FAB042"/>
<path d="M38.5892 186.81C38.3891 186.841 38.1891 186.901 37.9864 186.901C30.6746 186.906 23.3601 186.906 16.0483 186.903C15.8846 186.903 15.7209 186.888 15.5233 186.878C15.5026 186.724 15.4687 186.586 15.4687 186.45C15.4662 184.145 15.4662 181.844 15.4687 179.54C15.4687 179.398 15.4948 179.252 15.5104 179.106C15.5104 179.106 15.4973 179.126 15.4973 179.123C15.7442 179.138 15.991 179.169 16.2379 179.169C23.386 179.172 30.5316 179.172 37.6798 179.172C37.9266 179.172 38.1761 179.172 38.4982 179.172C38.5113 179.418 38.5294 179.637 38.5294 179.854C38.5321 181.95 38.5294 184.044 38.5321 186.14C38.5321 186.367 38.5633 186.591 38.5762 186.82C38.5762 186.823 38.5892 186.81 38.5892 186.81Z" fill="#FAB042"/>
<path d="M61.552 209.984C61.5623 209.426 61.5806 208.869 61.5832 208.308C61.5884 206.587 61.5857 204.867 61.5857 203.15C61.5857 202.925 61.5857 202.696 61.5857 202.384C60.9153 202.377 60.2813 202.369 59.6473 202.366C59.0237 202.364 58.4027 202.366 57.7791 202.366C57.1347 202.366 56.4929 202.366 55.8485 202.366C55.2275 202.366 54.6091 202.366 53.8997 202.366C53.8633 199.738 53.9023 197.16 53.8789 194.581L53.8633 194.596C54.1127 194.607 54.3596 194.625 54.6091 194.625C59.2212 194.627 63.8334 194.627 68.4481 194.627C68.6923 194.627 68.9366 194.627 69.2198 194.627C69.2198 199.795 69.2198 204.89 69.2198 210.02C69.0795 210.04 68.9417 210.08 68.8041 210.083C66.559 210.088 64.3167 210.088 62.0716 210.08C61.895 210.08 61.7182 210.007 61.5416 209.968L61.552 209.984Z" fill="#FAB042"/>
<path d="M30.7988 109.689C30.8118 109.915 30.8378 110.143 30.8378 110.369C30.8403 117.589 30.8403 124.807 30.8403 132.028C30.8403 132.271 30.8403 132.512 30.8403 132.827C30.5441 132.827 30.3207 132.827 30.0972 132.827C28.0419 132.827 25.984 132.824 23.9286 132.829C23.7051 132.829 23.4817 132.873 23.2582 132.897L23.2635 132.902C23.2297 132.681 23.1674 132.461 23.1674 132.238C23.1621 124.921 23.1621 117.608 23.1621 110.291C23.1621 110.107 23.1621 109.923 23.1621 109.705C23.3336 109.676 23.4687 109.635 23.6038 109.635C25.8645 109.63 28.1276 109.63 30.3882 109.635C30.5285 109.635 30.6715 109.676 30.8118 109.7C30.8091 109.7 30.7988 109.689 30.7988 109.689Z" fill="#FAB042"/>
<path d="M46.318 248.821C46.2868 248.579 46.227 248.335 46.227 248.094C46.2217 240.814 46.2217 233.531 46.2244 226.251C46.2244 226.049 46.2426 225.844 46.2529 225.605C46.44 225.588 46.5985 225.558 46.7596 225.558C48.9605 225.556 51.1639 225.553 53.3647 225.561C53.544 225.561 53.7233 225.621 53.9 225.652L53.8844 225.634C53.8844 233.317 53.8844 241.001 53.8844 248.751C53.5908 248.751 53.3673 248.751 53.1439 248.751C51.0886 248.751 49.0332 248.748 46.9805 248.753C46.7571 248.753 46.531 248.789 46.3075 248.811L46.318 248.821Z" fill="#FAB042"/>
<path d="M38.4595 94.041C38.4803 94.246 38.5193 94.451 38.5193 94.656C38.5218 99.4479 38.5218 104.242 38.5218 109.034C38.5218 109.198 38.5088 109.364 38.4985 109.597C38.2673 109.61 38.0463 109.631 37.8255 109.631C35.7261 109.634 33.6291 109.631 31.5296 109.636C31.2827 109.636 31.036 109.67 30.7891 109.688L30.7994 109.701C30.8099 109.431 30.828 109.164 30.828 108.894C30.8306 104.268 30.828 99.6424 30.828 95.0165C30.828 94.7701 30.828 94.5236 30.828 94.2045C31.0905 94.1889 31.3087 94.1682 31.527 94.1682C33.624 94.1656 35.7234 94.1707 37.8202 94.1629C38.036 94.1629 38.2517 94.0955 38.4647 94.0566C38.4698 94.0488 38.4595 94.041 38.4595 94.041Z" fill="#FAB042"/>
<path d="M61.5363 209.975C61.5519 210.159 61.5778 210.345 61.5778 210.531C61.5805 215.359 61.5805 220.187 61.5778 225.012C61.5778 225.155 61.5649 225.3 61.5544 225.518C61.3311 225.531 61.1128 225.557 60.8945 225.557C58.7794 225.559 56.6618 225.557 54.5466 225.562C54.3231 225.562 54.0997 225.609 53.8789 225.635C53.8789 225.635 53.8945 225.653 53.8945 225.656C53.8918 222.527 53.8867 219.396 53.884 216.263C53.8815 214.46 53.884 212.654 53.884 210.851C53.884 210.629 53.884 210.405 53.884 210.125C54.1621 210.113 54.3829 210.095 54.6064 210.095C56.7033 210.092 58.8002 210.097 60.8971 210.09C61.1153 210.09 61.3363 210.03 61.5519 209.995C61.5466 209.99 61.5363 209.975 61.5363 209.975Z" fill="#FAB042"/>
<path d="M15.5058 148.32C15.4927 148.135 15.4694 147.948 15.4694 147.764C15.4668 142.998 15.4668 138.232 15.4668 133.466C15.4668 133.285 15.4668 133.101 15.4668 132.885C15.6513 132.862 15.789 132.834 15.9267 132.834C18.1873 132.831 20.4506 132.827 22.7111 132.834C22.8956 132.834 23.0775 132.88 23.2619 132.905L23.2568 132.9C23.2256 133.139 23.1633 133.378 23.1633 133.617C23.158 138.244 23.158 142.871 23.158 147.499C23.158 147.743 23.158 147.985 23.158 148.283C22.8515 148.283 22.6279 148.283 22.4019 148.283C20.3232 148.283 18.2471 148.283 16.1684 148.283C15.9398 148.283 15.7137 148.298 15.4824 148.303C15.4849 148.301 15.5058 148.32 15.5058 148.32Z" fill="#FAB042"/>
<path d="M7.6704 163.679C7.70159 163.44 7.76134 163.201 7.76134 162.962C7.76654 158.345 7.76654 153.726 7.76654 149.11C7.76654 148.868 7.76654 148.621 7.76654 148.342C7.90685 148.317 8.00299 148.286 8.09654 148.286C10.4819 148.284 12.8646 148.284 15.2499 148.286C15.3305 148.286 15.4136 148.309 15.4968 148.322C15.4968 148.322 15.4759 148.304 15.4786 148.307C15.4734 148.535 15.4603 148.763 15.4603 148.989C15.4603 153.631 15.4603 158.269 15.4603 162.911C15.4603 163.158 15.4603 163.402 15.4603 163.674C15.3227 163.697 15.2265 163.725 15.1278 163.728C12.784 163.73 10.4403 163.73 8.09654 163.728C7.95362 163.728 7.81071 163.692 7.6678 163.674C7.66261 163.674 7.6704 163.679 7.6704 163.679Z" fill="#FAB042"/>
<path d="M115.278 194.561C115.307 194.32 115.359 194.075 115.359 193.835C115.364 189.229 115.361 184.625 115.361 180.019C115.361 179.773 115.361 179.526 115.361 179.213C115.624 179.2 115.842 179.181 116.06 179.181C118.157 179.178 120.257 179.181 122.354 179.178C122.58 179.178 122.808 179.158 123.035 179.145C123.035 179.145 123.016 179.125 123.014 179.122C123.029 179.306 123.06 179.49 123.06 179.674C123.063 184.466 123.063 189.258 123.063 194.052C123.063 194.216 123.063 194.377 123.063 194.574C122.884 194.598 122.746 194.629 122.608 194.629C120.345 194.631 118.079 194.634 115.816 194.629C115.634 194.629 115.45 194.579 115.268 194.553C115.265 194.551 115.278 194.561 115.278 194.561Z" fill="#FAB042"/>
<path d="M84.7073 225.673C84.6839 225.917 84.6449 226.161 84.6449 226.405C84.6424 231.007 84.6424 235.613 84.6424 240.216C84.6424 240.456 84.6424 240.7 84.6424 241.015C84.3461 241.015 84.1227 241.015 83.8992 241.015C81.8024 241.015 79.7054 241.015 77.6085 241.017C77.3824 241.017 77.1538 241.043 76.9277 241.058L76.9433 241.075C76.9433 235.938 76.9433 230.8 76.9433 225.624C77.146 225.599 77.3019 225.559 77.4578 225.559C79.6794 225.554 81.8985 225.554 84.1201 225.562C84.3175 225.562 84.5151 225.637 84.7151 225.679L84.7073 225.673Z" fill="#FAB042"/>
<path d="M84.682 148.266C79.6775 148.268 74.6731 148.273 69.6685 148.273C69.5671 148.273 69.4659 148.261 69.3775 148.256C69.2398 147.778 69.206 141.375 69.3334 140.584C74.4053 140.584 79.4826 140.584 84.6378 140.584C84.6456 143.158 84.6561 145.718 84.6639 148.281C84.6639 148.284 84.682 148.266 84.682 148.266Z" fill="#FAB042"/>
<path d="M107.741 155.982C109.191 155.987 110.643 155.995 112.093 155.995C115.492 155.997 118.893 155.995 122.292 155.995C122.518 155.995 122.741 155.995 122.996 155.995C123.022 156.124 123.058 156.219 123.058 156.317C123.061 158.697 123.061 161.077 123.058 163.459C123.058 163.56 123.027 163.661 123.011 163.765C123.011 163.765 123.03 163.744 123.027 163.747C122.798 163.742 122.57 163.726 122.344 163.726C117.719 163.726 113.094 163.726 108.468 163.726C108.242 163.726 108.016 163.726 107.756 163.726C107.733 163.56 107.699 163.422 107.699 163.288C107.697 160.989 107.697 158.69 107.699 156.388C107.699 156.246 107.738 156.106 107.759 155.964C107.762 155.964 107.741 155.982 107.741 155.982Z" fill="#FAB042"/>
<path d="M53.872 194.581C53.6668 194.596 53.4615 194.626 53.2563 194.626C48.5688 194.628 43.8839 194.628 39.1964 194.626C38.9937 194.626 38.7937 194.607 38.5571 194.597C38.5442 194.42 38.5234 194.281 38.5234 194.14C38.5208 191.863 38.5208 189.584 38.5234 187.307C38.5234 187.143 38.5571 186.98 38.5754 186.814C38.5754 186.811 38.5649 186.827 38.5676 186.824C38.7884 186.85 39.0093 186.904 39.2301 186.904C43.8397 186.91 48.4518 186.907 53.0614 186.907C53.3056 186.907 53.5499 186.907 53.7837 186.907C53.8279 187.021 53.8669 187.076 53.8669 187.133C53.8642 189.621 53.8591 192.108 53.8539 194.597C53.8564 194.599 53.872 194.581 53.872 194.581Z" fill="#FAB042"/>
<path d="M61.6197 256.526C61.6041 256.753 61.5755 256.977 61.5729 257.204C61.5702 259.274 61.5702 261.347 61.5702 263.417C61.5702 263.643 61.5702 263.868 61.5702 264.125C61.4248 264.154 61.3104 264.198 61.196 264.198C58.8316 264.203 56.4671 264.2 54.1025 264.198C54.0011 264.198 53.8972 264.175 53.7932 264.162C53.7907 264.162 53.8088 264.175 53.8088 264.172C53.8296 263.946 53.8686 263.724 53.8686 263.5C53.8739 261.404 53.8712 259.31 53.8712 257.214C53.8712 256.99 53.8712 256.768 53.8712 256.516C54.0739 256.498 54.2116 256.471 54.3519 256.471C56.6151 256.469 58.8809 256.469 61.1441 256.474C61.3052 256.474 61.4689 256.519 61.63 256.544C61.6326 256.542 61.6197 256.526 61.6197 256.526Z" fill="#FAB042"/>
<path d="M99.931 209.976C99.9517 209.754 99.9934 209.53 99.9934 209.308C99.9985 207.258 99.9959 205.208 99.9959 203.161C99.9959 202.934 99.9959 202.707 99.9959 202.408C100.245 202.393 100.464 202.37 100.682 202.37C102.797 202.367 104.91 202.37 107.025 202.364C107.245 202.364 107.469 202.312 107.692 202.284L107.677 202.269C107.679 204.798 107.685 207.331 107.687 209.86C107.687 209.898 107.664 209.938 107.633 210.036C107.482 210.051 107.305 210.086 107.128 210.086C104.928 210.088 102.724 210.091 100.523 210.083C100.323 210.083 100.126 210.01 99.9258 209.971L99.931 209.976Z" fill="#FAB042"/>
<path d="M99.9279 209.975C99.9513 210.159 99.9955 210.34 99.998 210.525C100.003 212.805 100.001 215.084 100.001 217.364C100.001 217.486 99.9877 217.61 99.9799 217.727C99.5355 217.865 93.2006 217.903 92.3691 217.774C92.3691 215.244 92.3691 212.709 92.3691 210.095C92.6212 210.095 92.8447 210.095 93.0681 210.095C95.1417 210.095 97.2177 210.097 99.2912 210.09C99.5069 210.09 99.7226 210.022 99.9382 209.985C99.9357 209.98 99.9279 209.975 99.9279 209.975Z" fill="#FAB042"/>
<path d="M115.268 194.548C115.299 194.729 115.357 194.908 115.357 195.09C115.362 197.349 115.362 199.61 115.359 201.869C115.359 202.01 115.341 202.149 115.328 202.326C115.115 202.342 114.936 202.365 114.754 202.365C112.595 202.368 110.435 202.37 108.276 202.363C108.076 202.363 107.876 202.302 107.676 202.269L107.691 202.285C107.691 199.763 107.691 197.241 107.691 194.628C107.962 194.628 108.18 194.628 108.401 194.628C110.472 194.628 112.542 194.631 114.613 194.626C114.837 194.626 115.058 194.584 115.281 194.558L115.268 194.548Z" fill="#FAB042"/>
<path d="M84.7179 225.68C84.6945 225.496 84.6477 225.314 84.6477 225.13C84.6426 222.849 84.6452 220.569 84.6452 218.288C84.6452 218.167 84.6581 218.046 84.6686 217.883C87.202 217.883 89.7017 217.883 92.2039 217.883C92.3468 218.306 92.3832 224.782 92.2298 225.558C92.0246 225.558 91.8011 225.558 91.5777 225.558C89.5015 225.558 87.4255 225.556 85.3493 225.563C85.1336 225.563 84.9206 225.636 84.7075 225.675C84.7101 225.675 84.7179 225.68 84.7179 225.68Z" fill="#FAB042"/>
<path d="M76.9372 241.057C76.9372 243.6 76.9372 246.142 76.9372 248.716C74.3751 248.716 71.8729 248.716 69.3759 248.716C69.2434 248.255 69.2044 241.876 69.3317 241.065C69.4617 241.049 69.5993 241.018 69.7396 241.018C72.0029 241.015 74.2634 241.015 76.5266 241.018C76.6696 241.018 76.8125 241.055 76.9528 241.073C76.9553 241.073 76.9372 241.057 76.9372 241.057Z" fill="#FAB042"/>
<path d="M61.6412 256.543C61.6204 256.401 61.5839 256.258 61.5839 256.115C61.5814 253.79 61.5814 251.468 61.5839 249.144C61.5839 249.043 61.5995 248.942 61.61 248.796C64.146 248.796 66.6638 248.796 69.2206 248.796C69.2206 251.339 69.2206 253.86 69.2206 256.469C68.9764 256.469 68.7556 256.469 68.5346 256.469C66.4586 256.469 64.3799 256.466 62.3037 256.471C62.0776 256.471 61.8542 256.505 61.6282 256.525C61.6282 256.528 61.6412 256.543 61.6412 256.543Z" fill="#FAB042"/>
<path d="M137.109 279.131C139.514 280.519 141.864 281.876 144.274 283.267C147.126 278.328 149.951 273.435 152.813 268.479C155.238 269.878 157.603 271.244 160.056 272.66C160.707 271.559 161.305 270.504 161.915 269.457C162.517 268.418 163.115 267.377 163.716 266.337C164.328 265.278 164.939 264.218 165.551 263.159C166.163 262.099 166.774 261.04 167.386 259.981C167.998 258.921 168.609 257.862 169.221 256.801C169.822 255.762 170.421 254.722 171.022 253.681C171.631 252.627 172.24 251.573 172.889 250.45C175.318 251.853 177.686 253.22 180.14 254.636C180.893 253.344 181.598 252.117 182.307 250.888C183.01 249.671 183.713 248.455 184.415 247.239C185.129 246.002 185.842 244.766 186.555 243.531C187.27 242.295 187.983 241.058 188.697 239.822C189.399 238.605 190.102 237.389 190.803 236.173C191.515 234.942 192.224 233.713 192.974 232.414C195.401 233.814 197.767 235.181 200.197 236.584C203.061 231.621 205.887 226.729 208.742 221.782C211.157 223.177 213.506 224.533 215.837 225.878C216.255 225.495 219.866 219.313 220.159 218.501C217.818 217.15 215.464 215.79 213.029 214.386C213.52 213.524 213.987 212.704 214.454 211.888C214.917 211.083 215.383 210.28 215.847 209.476C216.32 208.657 216.792 207.84 217.3 206.959C212.456 204.162 207.672 201.4 202.829 198.603C204.263 196.119 205.662 193.696 207.103 191.2C199.843 187.008 192.643 182.851 185.388 178.663C186.83 176.166 188.228 173.743 189.661 171.264C184.838 168.479 180.072 165.727 175.323 162.985C175.469 162.438 183.224 148.921 183.824 148.159C186.177 149.518 188.546 150.885 190.986 152.294C193.851 147.33 196.674 142.439 199.542 137.473C201.979 138.88 204.347 140.248 206.765 141.643C211.051 134.219 215.294 126.869 219.569 119.465C221.989 120.862 224.357 122.229 226.802 123.64C227.822 121.97 228.738 120.314 229.693 118.678C230.638 117.052 231.574 115.421 232.512 113.795C233.46 112.154 234.408 110.511 235.391 108.809C237.823 110.213 240.191 111.581 242.62 112.983C246.907 105.559 251.16 98.1946 255.451 90.761C257.88 92.1636 260.248 93.5311 262.677 94.9323C266.956 87.5184 271.198 80.1731 275.477 72.7615C277.906 74.1643 280.274 75.5316 282.724 76.9458C283.323 75.9121 283.889 74.9438 284.45 73.9726C285.019 72.993 285.583 72.0105 286.149 71.0296C286.715 70.0486 287.282 69.0675 287.848 68.0866C288.415 67.1055 288.981 66.1245 289.547 65.1436C290.113 64.1649 290.678 63.1864 291.281 62.1417C293.714 63.4748 296.047 64.8996 298.494 66.2603C299.422 64.8011 300.22 63.3139 301.073 61.8564C301.929 60.3892 302.774 58.9148 303.624 57.4433C304.485 55.9521 305.345 54.461 306.206 52.9699C307.056 51.4983 307.905 50.0269 308.755 48.5553C309.603 47.0863 310.452 45.6172 311.345 44.0697C313.76 45.4411 316.116 46.8242 318.556 48.22C321.404 43.288 324.227 38.3976 327.041 33.5244C327.604 33.6767 333.377 36.9541 334.248 37.5946C334.255 37.6178 334.263 37.6385 334.266 37.6604C334.27 37.6822 334.272 37.7026 334.269 37.724C334.266 37.7454 334.26 37.7679 334.251 37.789C334.233 37.831 334.213 37.8716 334.194 37.9123C334.185 37.9334 334.171 37.9515 334.162 37.9726C334.139 38.0118 334.116 38.0511 334.094 38.0903C334.082 38.11 334.071 38.1295 334.059 38.1492C334.025 38.208 333.992 38.2669 333.957 38.3257C309.983 79.852 286.008 121.376 262.034 162.902C262.011 162.942 261.988 162.98 261.966 163.019C261.955 163.039 261.943 163.059 261.932 163.078C261.909 163.118 261.887 163.158 261.866 163.197C261.855 163.218 261.846 163.238 261.837 163.26C261.828 163.28 261.817 163.299 261.81 163.322C261.804 163.345 261.799 163.365 261.795 163.389C261.792 163.411 261.792 163.434 261.791 163.531C266.526 166.264 271.294 169.017 276.141 171.816C275.464 173.101 274.735 174.29 274.044 175.5C273.348 176.717 272.642 177.928 271.902 179.207C273.327 180.127 274.783 180.903 276.199 181.734C277.629 182.572 279.068 183.393 280.502 184.222C281.956 185.062 283.41 185.901 284.864 186.741C286.3 187.569 287.735 188.397 289.169 189.225C290.601 190.052 292.036 190.881 293.542 191.75C293.25 192.419 292.862 192.996 292.525 193.598C292.169 194.231 291.801 194.856 291.44 195.483C291.088 196.092 290.737 196.7 290.385 197.308C290.038 197.911 289.69 198.512 289.31 199.17C294.148 201.963 298.917 204.715 303.764 207.514C302.365 210.006 300.937 212.41 299.516 214.911C300.724 215.667 301.932 216.326 303.119 217.017C304.315 217.715 305.515 218.404 306.714 219.096C307.912 219.789 309.111 220.48 310.31 221.173C311.503 221.862 312.698 222.552 313.932 223.264C312.498 225.745 311.101 228.166 309.662 230.658C307.277 229.28 304.913 227.915 302.481 226.512C301.04 229.008 299.64 231.431 298.21 233.909C295.776 232.503 293.408 231.136 290.981 229.734C288.122 234.686 285.295 239.582 282.435 244.535C280.013 243.137 277.645 241.77 275.193 240.354C274.691 241.202 274.237 242 273.778 242.793C273.302 243.618 272.826 244.442 272.351 245.266C271.886 246.07 271.423 246.873 270.913 247.756C270.263 247.451 269.681 247.069 269.079 246.728C268.485 246.396 267.898 246.051 267.308 245.71C266.7 245.358 266.09 245.007 265.48 244.655C264.894 244.315 264.306 243.977 263.658 243.602C262.229 246.076 260.829 248.502 259.391 250.991C256.962 249.589 254.594 248.222 252.167 246.82C250.729 249.31 249.33 251.733 247.884 254.236C245.442 252.873 243.098 251.469 240.654 250.092C239.234 252.552 237.834 254.975 236.387 257.483C233.955 256.083 231.588 254.714 229.152 253.311C228.362 254.548 227.691 255.795 226.976 257.018C226.266 258.23 225.569 259.449 224.866 260.665C224.153 261.901 223.44 263.138 222.725 264.374C222.026 265.586 221.328 266.795 220.587 268.078C218.153 266.672 215.785 265.304 213.355 263.901C211.916 266.393 210.518 268.814 209.079 271.308C206.651 269.906 204.286 268.54 201.851 267.136C200.412 269.627 199.014 272.05 197.58 274.533C195.146 273.127 192.778 271.759 190.33 270.346C189.832 271.2 189.367 271.993 188.904 272.789C188.426 273.612 187.952 274.438 187.477 275.261C187.014 276.064 186.55 276.865 186.048 277.736C183.643 276.347 181.277 274.981 178.852 273.582C177.415 276.071 176.016 278.494 174.582 280.979C172.156 279.579 169.791 278.213 167.337 276.796C166.351 278.493 165.409 280.13 164.463 281.768C163.523 283.396 162.582 285.025 161.644 286.651C160.697 288.292 159.748 289.935 158.767 291.632C156.33 290.225 153.96 288.856 151.528 287.453C150.096 289.932 148.697 292.355 147.259 294.847C144.829 293.444 142.463 292.078 140.031 290.673C138.594 293.163 137.197 295.583 135.808 297.989C135.245 297.835 129.236 294.398 128.582 293.871C131.413 288.994 134.237 284.104 137.109 279.131Z" fill="#FAB042"/>
</svg>
