<svg width="400" height="420" viewBox="0 0 400 420" fill="none" xmlns="http://www.w3.org/2000/svg">
<path d="M114.286 38.0948V19.0488H76.1934V38.0948H114.286Z" fill="#FAB042"/>
<path d="M152.381 19.0494H285.714V0H114.285V19.0494H152.381Z" fill="#FAB042"/>
<path d="M304.764 38.0948H323.813V19.0488H285.717V38.0948H304.764Z" fill="#FAB042"/>
<path d="M57.1436 190.476V152.38H38.0977V228.572H57.1436V190.476Z" fill="#FAB042"/>
<path d="M152.38 171.429H114.284V190.475H133.334V209.524H114.284V190.475H95.2383V228.571H114.284V247.617H152.38V228.571H171.43V190.475H152.38V171.429Z" fill="#FAB042"/>
<path d="M76.19 228.572H57.1406V266.668H76.19V228.572Z" fill="#FAB042"/>
<path d="M76.1914 266.668H95.2374V285.714H76.1914V266.668Z" fill="#FAB042"/>
<path d="M266.667 285.715H95.2383V304.764H114.284V323.81H323.809V304.764H304.759V285.715H266.667Z" fill="#FAB042"/>
<path d="M95.2383 342.858V419.051H114.284V323.812H95.2383V342.858Z" fill="#FAB042"/>
<path d="M323.811 323.811H342.857V342.857H323.811V323.811Z" fill="#FAB042"/>
<path d="M342.857 342.858H361.903V361.904H342.857V342.858Z" fill="#FAB042"/>
<path d="M361.906 400.001H380.952V361.904H361.906V400.001Z" fill="#FAB042"/>
<path d="M380.953 400.001H399.999V419.047H380.953V400.001Z" fill="#FAB042"/>
<path d="M304.764 266.668H323.81V285.714H304.764V266.668Z" fill="#FAB042"/>
<path d="M323.811 247.62V266.669H342.857V228.573H323.811V247.62Z" fill="#FAB042"/>
<path d="M342.857 171.429V228.571H361.907V152.379H342.857V171.429Z" fill="#FAB042"/>
<path d="M380.953 38.0954H323.811V57.1414H342.857V76.1908H323.811V114.287H342.857V133.333H361.906V152.379H380.952V114.286H399.998V38.0938L380.953 38.0954Z" fill="#FAB042"/>
<path d="M190.477 228.572H209.523V247.618H190.477V228.572Z" fill="#FAB042"/>
<path d="M285.714 171.429H247.618V190.475H266.668V209.524H247.618V190.475H228.572V228.571H247.618V247.617H285.714V228.571H304.76V190.475H285.714V171.429Z" fill="#FAB042"/>
<path d="M57.143 133.333V114.287H76.1924V76.1911H57.143V57.1417H76.1924V38.0957H0V114.288H19.046V152.381H38.0954V133.335L57.143 133.333Z" fill="#FAB042"/>
</svg>
