<svg width="400" height="411" viewBox="0 0 400 411" fill="none" xmlns="http://www.w3.org/2000/svg">
<path d="M136.844 147.367H263.16V168.418H136.844V147.367Z" fill="#FAB042"/>
<path d="M136.844 252.63H263.16V273.681H136.844V252.63Z" fill="#FAB042"/>
<path d="M115.791 168.42H136.842V252.633H115.791V168.42Z" fill="#FAB042"/>
<path d="M263.158 168.42H284.209V252.633H263.158V168.42Z" fill="#FAB042"/>
<path d="M157.895 199.998H178.945V221.049H157.895V199.998Z" fill="#FAB042"/>
<path d="M221.055 199.998H242.105V221.049H221.055V199.998Z" fill="#FAB042"/>
<path d="M115.791 105.262H136.842V126.313H115.791V105.262Z" fill="#FAB042"/>
<path d="M263.158 105.262H284.209V126.313H263.158V105.262Z" fill="#FAB042"/>
<path d="M126.316 21.0508H273.685V42.1016H126.316V21.0508Z" fill="#FAB042"/>
<path d="M357.896 42.1035H273.684V63.1581H294.738V84.2089H336.844V105.263H357.895L357.896 42.1035Z" fill="#FAB042"/>
<path d="M42.1064 105.261H63.1572V84.2069H105.264V63.1561H126.318V42.1016H42.1055L42.1064 105.261Z" fill="#FAB042"/>
<path d="M21.0527 105.262H42.1035V147.368H21.0527V105.262Z" fill="#FAB042"/>
<path d="M357.896 105.262H378.947V147.368H357.896V105.262Z" fill="#FAB042"/>
<path d="M273.686 0H378.949V21.0508H273.686V0Z" fill="#FAB042"/>
<path d="M378.949 21.0508H400V105.263H378.949V21.0508Z" fill="#FAB042"/>
<path d="M21.0527 0H126.316V21.0508H21.0527V0Z" fill="#FAB042"/>
<path d="M0 21.0508H21.0508V105.263H0V21.0508Z" fill="#FAB042"/>
<path d="M42.1055 326.314H63.1563V389.472H42.1055V326.314Z" fill="#FAB042"/>
<path d="M136.844 326.314H157.895V389.472H136.844V326.314Z" fill="#FAB042"/>
<path d="M242.105 326.314H263.156V389.472H242.105V326.314Z" fill="#FAB042"/>
<path d="M336.844 326.314H357.895V389.472H336.844V326.314Z" fill="#FAB042"/>
<path d="M63.1582 389.473H136.841V410.523H63.1582V389.473Z" fill="#FAB042"/>
<path d="M263.158 389.473H336.841V410.523H263.158V389.473Z" fill="#FAB042"/>
<path d="M157.895 305.262H242.107V326.313H157.895V305.262Z" fill="#FAB042"/>
<path d="M378.949 147.367H400V284.21H378.949V147.367Z" fill="#FAB042"/>
<path d="M0 147.367H21.0508V284.21H0V147.367Z" fill="#FAB042"/>
<path d="M357.896 284.209H378.947V326.315H357.896V284.209Z" fill="#FAB042"/>
<path d="M21.0527 284.209H42.1035V326.315H21.0527V284.209Z" fill="#FAB042"/>
</svg>
