<svg width="400" height="400" viewBox="0 0 400 400" fill="none" xmlns="http://www.w3.org/2000/svg">
<path d="M0 0H30.7827V30.7827H0V0Z" fill="#FAB042"/>
<path d="M30.7861 30.7861H61.5688V61.5688H30.7861V30.7861Z" fill="#FAB042"/>
<path d="M30.7861 338.499H61.5688V369.282H30.7861V338.499Z" fill="#FAB042"/>
<path d="M338.498 338.499H369.281V369.282H338.498V338.499Z" fill="#FAB042"/>
<path d="M338.498 30.7861H369.281V61.5688H338.498V30.7861Z" fill="#FAB042"/>
<path d="M276.926 123.077V92.2943H307.709V0.00878906H276.926V30.7915H246.139V61.5116H215.356V153.864H246.139V123.077H276.926Z" fill="#FAB042"/>
<path d="M123.076 123.077H153.863V153.864H184.646V61.5116H153.863V30.7915H123.076V0.00878906H92.293V92.2943H123.076V123.077Z" fill="#FAB042"/>
<path d="M369.218 0H400V30.7827H369.218V0Z" fill="#FAB042"/>
<path d="M307.713 123.077H276.93V153.864H246.143V184.647H338.495V153.864H369.215V123.077H399.998V92.2939H307.713V123.077Z" fill="#FAB042"/>
<path d="M30.7856 153.863H61.5057V184.646H153.858V153.863H123.071V123.076H92.2884V92.293H0.00292969V123.076H30.7856V153.863Z" fill="#FAB042"/>
<path d="M153.861 276.927H123.074V307.71H92.291V399.995H123.074V369.212H153.861V338.492H184.644V246.14H153.861V276.927Z" fill="#FAB042"/>
<path d="M123.075 276.927V246.14H153.862V215.357H61.5096V246.14H30.7896V276.927H0.00683594V307.71H92.2924V276.927H123.075Z" fill="#FAB042"/>
<path d="M0 369.218H30.7827V400H0V369.218Z" fill="#FAB042"/>
<path d="M369.216 246.14H338.496V215.357H246.144V246.14H276.931V276.927H307.713V307.71H399.999V276.927H369.216V246.14Z" fill="#FAB042"/>
<path d="M276.926 276.927H246.139V246.14H215.356V338.492H246.139V369.212H276.926V399.995H307.709V307.71H276.926V276.927Z" fill="#FAB042"/>
<path d="M184.637 184.637H215.419V215.419H184.637V184.637Z" fill="#FAB042"/>
<path d="M369.218 369.218H400V400H369.218V369.218Z" fill="#FAB042"/>
</svg>
