<svg width="400" height="427" viewBox="0 0 400 427" fill="none" xmlns="http://www.w3.org/2000/svg">
<path d="M133.318 266.765H266.704V293.399H133.318V266.765Z" fill="#FAB042"/>
<path d="M186.578 240.062V213.428H213.282V240.062H293.394V186.65H106.605V240.062H186.578Z" fill="#FAB042"/>
<path d="M266.693 133.312V159.942H373.362V186.65H399.997V133.312H266.693Z" fill="#FAB042"/>
<path d="M320.031 399.994V426.698H400V373.359H373.365V399.994H320.031Z" fill="#FAB042"/>
<path d="M346.666 320.022H373.37V373.357H346.666V320.022Z" fill="#FAB042"/>
<path d="M346.666 186.648H373.37V213.427H346.666V186.648Z" fill="#FAB042"/>
<path d="M320.031 266.765H346.666V320.033H320.031V266.765Z" fill="#FAB042"/>
<path d="M320.031 213.428H346.666V240.063H320.031V213.428Z" fill="#FAB042"/>
<path d="M266.693 373.359H320.028V399.994H266.693V373.359Z" fill="#FAB042"/>
<path d="M293.395 240.063H320.029V266.767H293.395V240.063Z" fill="#FAB042"/>
<path d="M213.279 346.735H266.691V373.37H213.279V346.735Z" fill="#FAB042"/>
<path d="M240.059 79.9648H266.693V133.299H240.059V79.9648Z" fill="#FAB042"/>
<path d="M213.279 26.7061H240.058V79.9746H213.279V26.7061Z" fill="#FAB042"/>
<path d="M186.578 320.022H213.282V346.726H186.578V320.022Z" fill="#FAB042"/>
<path d="M186.578 0H213.282V26.7038H186.578V0Z" fill="#FAB042"/>
<path d="M159.955 26.7061H186.59V79.9746H159.955V26.7061Z" fill="#FAB042"/>
<path d="M133.318 346.735H186.587V373.37H133.318V346.735Z" fill="#FAB042"/>
<path d="M133.318 79.9648H159.953V133.299H133.318V79.9648Z" fill="#FAB042"/>
<path d="M79.9824 373.359H133.317V399.994H79.9824V373.359Z" fill="#FAB042"/>
<path d="M79.9824 240.063H106.608V266.767H79.9824V240.063Z" fill="#FAB042"/>
<path d="M53.3496 266.765H79.9844V320.033H53.3496V266.765Z" fill="#FAB042"/>
<path d="M53.3496 213.428H79.9844V240.063H53.3496V213.428Z" fill="#FAB042"/>
<path d="M26.6348 399.994V373.359H0V426.698H79.9768V399.994H26.6348Z" fill="#FAB042"/>
<path d="M26.6367 320.022H53.345V373.357H26.6367V320.022Z" fill="#FAB042"/>
<path d="M26.6367 186.648H53.345V213.427H26.6367V186.648Z" fill="#FAB042"/>
<path d="M133.319 159.936V133.306H0.0117188V186.644H26.6465V159.936H133.319Z" fill="#FAB042"/>
</svg>
