<svg width="72" height="43" viewBox="0 0 72 43" fill="none" xmlns="http://www.w3.org/2000/svg">
<path d="M25.6728 42.6429V38.0954H32.4279V31.2728H25.6728V24.5286H18.9175V31.2728H12.084V11.0398H18.8391V17.784H25.5944V11.0398H32.3495V4.21729H25.5944V0.0358887H45.9387V4.21729H39.1834V10.9615H45.9387V17.7057H52.6938V11.0398H59.4489V31.3512H52.6935V24.5286H45.9382V31.2728H39.1831V38.017H45.9382V42.6432H25.6728V42.6429ZM12.084 4.21729V0.0358887H18.8391V4.21729H12.084ZM12.084 42.6429V38.0954H18.8391V42.6429H12.084ZM18.8391 11.0398V4.21729H25.5944V10.9615H18.8391V11.0398ZM18.8391 38.0957V31.2728H25.5944V38.017H18.8391V38.0957ZM39.1831 24.5286V17.7844H32.4279V24.5286H39.1831ZM45.9382 11.0398V4.21729H52.6935V10.9615H45.9382V11.0398ZM45.9382 38.0957V31.2728H52.6935V38.017H45.9382V38.0957ZM52.7717 4.21729V0.0358887H59.527V4.21729H52.7717ZM52.7717 42.6429V38.0954H59.527V42.6429H52.7717Z" fill="#FFE1B5"/>
<path d="M0 0.0375977H5.26875V4.21899H0.247493V10.9632H5.26875V17.7073H12.0239V11.0415H18.7791V31.3529H12.0239V24.5303H5.26875V31.2745H0.247493V38.0187H5.26875V42.6449H0.0787151L0 0.0375977ZM5.26875 11.0415V4.21899H12.0239V10.9632H5.26875V11.0415ZM5.26875 38.0974V31.2745H12.0239V38.0187H5.26875V38.0974ZM12.1027 4.21899V0.0375977H18.8578V4.21899H12.1027ZM12.1027 42.6446V38.0971H18.8578V42.6446H12.1027Z" fill="#FFE1B5"/>
<path d="M71.9998 42.6069H66.343V38.0594H71.9998V31.2368H66.343V24.4927H59.5879V31.2368H52.7539V11.0039H59.5092V17.7482H66.2643V11.0039H71.9211V4.1814H66.2643V0H71.9998V42.6069ZM52.7539 4.1814V0H59.5092V4.1814H52.7539ZM52.7539 42.6069V38.0594H59.5092V42.6069H52.7539ZM59.5092 11.0039V4.1814H66.2643V10.9256H59.5092V11.0039ZM59.5092 38.0599V31.2368H66.2643V37.9812H59.5092V38.0599Z" fill="#FFE1B5"/>
</svg>
